<?xml version="1.0" encoding="UTF-8"?>
<svg xmlns="http://www.w3.org/2000/svg" id="Layer_1" viewBox="0 0 440.1523 428.3945">
  <defs>
    <style>.cls-1{fill:#eeeff0;}.cls-2{fill:#f0f0f1;}.cls-3{fill:#e8e9eb;}.cls-4{fill:#fff;}.cls-5{fill:#f0f1f1;}.cls-6{fill:#af3639;}.cls-7{fill:#b0373a;}.cls-8{fill:#b0393c;}.cls-9{fill:#b0383a;}.cls-10{fill:#aaadb3;}.cls-11{fill:#ae3639;}.cls-12{fill:#171f2e;}.cls-13{fill:#161d2d;}.cls-14{fill:#252c3b;}.cls-15{fill:#1e2534;}.cls-16{fill:#222938;}.cls-17{fill:#212837;}.cls-18{fill:#141b2b;}.cls-19{fill:#1c2333;}.cls-20{fill:#1b2232;}.cls-21{fill:#1a1c2b;}.cls-22{fill:#29303e;}</style>
  </defs>
  <circle class="cls-4" cx="220.3557" cy="213.384" r="210.1913"></circle>
  <g>
    <path class="cls-18" d="M433.5796,192.6896c1.3802,0,2.7061-.0469,4.0272,.0115,1.7625,.0779,2.5419,.8538,2.5424,2.3995,.0005,1.5106-.7938,2.3152-2.515,2.4833-.5778,.0564-1.1657,.0096-1.749,.0096-13.7488,0-27.4975,0-41.2463,0h-3.059c.7728,9.6602,.6795,19.2717,.3134,28.8756,.8247,.7276,1.786,.3905,2.6577,.3921,13.7487,.0246,27.4974,.0172,41.2462,.0177,.6665,0,1.3407-.058,1.998,.0212,1.6402,.1976,2.4323,1.1208,2.3514,2.6406-.0752,1.4154-.8311,2.1346-2.474,2.216-1.229,.061-2.4635,.012-3.7545,.012-4.1794,45.1224-20.256,85.2027-49.2449,119.8484-22.1013,26.4142-49.1296,46.3594-80.8497,59.8573-30.3324,12.9074-62.0468,18.4426-94.8863,16.5622-53.2905-3.0514-99.4096-23.1734-137.7904-60.2434C32.7722,330.7293,11.9784,285.0765,6.6641,231.8397c-.8097-.0205-1.7739-.0371-2.7374-.0719-.7474-.0269-1.5157,.021-2.2358-.1392-1.0829-.2409-1.6707-1.0951-1.6892-2.184-.0187-1.1064,.4855-1.9647,1.5773-2.2382,.9509-.2383,1.9639-.3136,2.9496-.3149,13.832-.019,27.6641-.0128,41.4962-.0128h2.9195c.4839-3.2601-.3092-6.4513-.24-9.6501,.0703-3.248-.0264-6.5008,.0883-9.7466,.1137-3.2165,.4-6.4268,.6268-9.8883h-2.7599c-14.1654,0-28.3307,.0014-42.4961-.0039-.7458-.0003-1.5107,.0374-2.2331-.1086-1.3661-.2761-1.976-1.1357-1.9276-2.4908,.0479-1.3423,.7388-2.1655,2.1608-2.2582,1.5701-.1024,3.152-.0234,4.9329-.0234,5.4375-48.1466,24.2943-90.1073,57.436-125.4581,20.771-22.1555,45.2716-39.0051,73.2608-50.7643C164.2398,5.3752,191.872-.2161,220.5112,.0064c54.7526,.4253,102.9054,18.7065,143.5217,55.4814,40.5424,36.708,63.2184,82.8185,69.5468,137.2019Zm-69.5812,49.4935l4.4182-.6557c-1.4497,.1571-2.9763-1.0333-4.347,.1938-4.0078,.4818-8.0281,.8789-12.0207,1.4647-6.4564,.9474-12.8954,2.0127-19.338,3.0521-.4109,.0663-.7886,.3377-1.1818,.5137,.6274,.3366,1.1837,.4189,1.7073,.323,3.2456-.5943,6.4756-1.276,9.7264-1.8384,4.9554-.8573,9.9176-1.6791,14.8889-2.4378,2.0329-.3103,4.0969-.4164,6.1468-.6154Zm-236.9508,49.0892c-11.0226-2.8814-22.1837-5.0822-33.5956-7.0376,1.6471,2.4764,1.7752,2.5725,3.7279,2.8667,2.3752,.3578,4.757,.6767,7.1252,1.0757,7.5917,1.2792,15.1784,2.5876,22.7671,3.8848,2.0872,.4898,4.142,1.2018,6.2976,1.2203l.1107-.5692-6.4328-1.4407Zm15.3835-9.4026c3.0669,1.1297,6.2423,1.7643,9.4205,2.3864l.1204-.4928c-2.9868-.8137-5.9735-1.6274-8.9602-2.4411-17.7552-5.3093-57.629-13.547-62.1678-12.768,.6516,.9328,1.2547,1.7964,1.8134,2.5962,6.8616,1.0138,13.5971,1.9037,20.2936,3.0258,7.919,1.3271,15.8163,2.7935,23.7004,4.3167,5.2802,1.0201,10.5211,2.244,15.7796,3.3766Zm14.6076-10.5829c-28.0186-9.0215-56.707-14.9521-86.223-18.9786,.5451,.9945,.8442,1.5768,1.1777,2.1386,.332,.5593,.6986,1.0981,1.0476,1.6422,28.5414,2.9636,56.4716,8.5719,84.0461,16.0347,2.5782,.9354,5.2006,1.6888,7.8794,2.2109l.1558-.5463c-2.6945-.8338-5.389-1.6676-8.0835-2.5014Zm17.0404-7.6979c2.3332,1.0595,4.7603,1.8073,7.218,2.4531l.1917-.5503-7.4651-2.6731c-17.7378-6.8071-36.0048-11.8233-54.4551-16.2616-16.3144-3.9244-51.7664-10.1755-56.1373-9.6632l1.675,3.7322c5.0913,.5714,9.973,.9938,14.8153,1.6905,8.4521,1.216,16.9099,2.436,25.3097,3.9606,8.5552,1.5529,17.0767,3.3293,25.5535,5.2679,14.6138,3.3419,29.0072,7.5101,43.2943,12.0439Zm2.7839-134.0862c-.5556,.1657-1.1429,.2637-1.662,.5073-6.1556,2.8896-12.3758,5.654-18.432,8.7398-9.9011,5.0449-18.4317,11.8521-25.5433,20.4438-3.0239,3.6533-6.198,7.1979-9.4969,10.605-8.554,8.8344-18.3177,16.1959-28.568,22.9238-10.9774,7.2052-22.0082,14.3291-33.0063,21.5028-1.2402,.809-2.4199,1.7109-3.6425,2.5803,.5833,1.9075,1.1119,3.6363,1.6413,5.3677,4.0484-2.24,7.9709-4.4102,11.8932-6.5809,2.7758-1.5363,5.6882-2.6913,8.8365-3.2052,.9306-.1519,1.8065-.2171,2.37,.7246-.9686,1.8336-1.6529,2.6215-4.242,4.0776-3.18,1.7885-6.4631,3.3927-9.6728,5.13-1.3604,.7363-2.7429,1.0656-4.2962,.9511-1.4653-.108-2.9448-.0232-4.5866-.0232l1.2386,3.5684c4.6964,.2733,9.3383,.4825,13.97,.8282,5.8019,.4329,11.6163,.8078,17.3878,1.514,8.8173,1.079,17.6266,2.2717,26.3953,3.6879,10.8149,1.7465,21.4207,4.4762,31.981,7.3726,21.916,6.011,42.8906,14.3941,63.003,24.9554,.5532,.2905,1.0838,.624,1.9865,1.1468-30.929,12.9985-60.1489,28.327-87.9807,46.7646,.9543,.656,1.6887,1.1762,2.4389,1.6725,.7576,.5011,1.5309,.9784,2.2888,1.4607,.4264-.2366,.799-.4138,1.1412-.6375,21.8646-14.2921,44.7144-26.787,68.5159-37.5427,21.2455-9.6007,42.883-18.1872,65.1591-25.1147,13.7732-4.2833,27.5885-8.4309,41.6282-11.7573,10.81-2.5612,21.6365-5.0772,32.5211-7.291,8.9409-1.8184,17.9742-3.1852,26.9741-4.7075,4.5726-.7734,9.1618-1.4484,13.8366-2.1825,.7827-2.5237,1.555-5.0141,2.4254-7.8209-1.9139,.2318-3.4503,.4178-5.0447,.6108-.2731-.4059-.4952-.736-.8772-1.3036,1.2538-1.2941,2.4731-2.5526,3.6301-3.7468-.7885-1.5629-2.0268-2.0566-3.2796-2.5294-4.9656-1.8742-9.9111-3.7857-14.5991-6.3137-1.0015-.54-2.1856-.7811-3.3149-1.0223-.3785-.0808-.8484,.2664-1.419,.4683,.8191,1.6202,2.0164,2.6411,3.1537,3.7212,1.5667,1.4877,3.1332,2.9785,4.6299,4.5352,.4722,.4911,.7204,1.1976,1.3715,2.3264-1.3731-.1893-2.1873-.1968-2.9358-.4224-3.7232-1.1216-6.928-3.1621-9.8196-5.7203-1.1845-1.0479-2.2928-2.186-3.5143-3.1873-3.1523-2.5841-6.3423-5.1224-9.5289-7.6644-2.3524-1.8766-3.9637-4.244-4.6974-7.1615-.4243-1.6868-.6881-3.4133-1.0776-5.1097-.9789-4.2639-3.8005-6.8959-7.7162-8.4661-2.8298-1.1348-3.7336-.0655-4.1021,2.7342-.0627,.4763,.0186,1.0096,.1736,1.4692,.4481,1.3288,.9531,2.6392,1.4644,3.9455,.3463,.8845,1.117,1.658,.691,2.882-2.6252-.4867-4.7628-1.8938-6.9871-3.1141-1.3515-.7415-2.1327-1.7108-2.0891-3.3636,.0504-1.909-.7169-3.5468-2.0979-4.8994-.5218-.511-.9511-1.1164-1.4062-1.6593,1.1375-3.692,3.9717-6.8005,2.997-10.826-2.1076-1.2603-3.2551-1.182-4.8031,.72-1.5852,1.9478-3.5327,3.2367-5.824,4.1129-.3091,.1182-.6117,.2566-.9088,.4031-2.4699,1.2179-3.1039,2.2712-2.6184,4.9743,.3808,2.1202,.1182,4.129-.5086,6.1342-.2721,.8703-.5696,1.7327-.8542,2.5992-.8573,2.6105-.6135,5.0098,1.0493,7.3131,1.8459,2.5568,3.5573,5.2148,5.2408,7.8832,1.0005,1.5859,2.278,2.7818,3.8399,3.8208,1.8593,1.2368,3.6956,2.5896,5.2555,4.1742,1.9187,1.9491,4.0572,3.4185,6.6188,4.2875,2.5098,.8514,5.0139,1.7345,7.5636,2.4504,6.4996,1.8249,11.9545,5.2659,16.6321,10.5324-4.547,.8851-8.9155,1.7354-12.7855,2.4886-2.1093-1.187-3.7377-2.1776-5.4318-3.0391-2.4682-1.2553-4.7603-2.7008-6.565-4.8603-1.3488-1.614-3.0181-2.8534-4.9521-3.7128-1.8177-.8077-3.6136-1.6699-5.459-2.4084-4.1009-1.6412-6.7985-4.6075-8.5252-8.6097-.8534-1.978-1.8663-3.8911-2.8784-5.7956-1.3789-2.5948-3.1802-4.8886-5.3762-6.8342-2.3872-2.1151-4.5799-1.9137-6.2741,.7728-1.4429,2.2879-3.2405,4.1911-5.1482,6.0586-1.8926,1.8526-3.1264,4.1124-3.1656,6.8334-.0426,2.9582-.6922,5.734-1.9569,8.4121-.8618,1.8247-1.2908,3.7518-.6498,5.8009,.4689,1.4992,.7416,3.0602,1.2221,4.555,.3412,1.0615,.4703,2.0714,.1397,3.3311-.6231-.0717-1.3482,.0648-1.6632-.2327-.9492-.8967-1.9017-1.8679-2.5499-2.9857-.8258-1.4241-1.2996-3.0475-2.0322-4.5322-.4709-.9543-1.002-1.9454-1.7405-2.6865-1.3326-1.3373-3.3193-1.0223-4.1914,.6441-.5297,1.0121-.884,2.1537-1.11,3.2787-.4083,2.0323-.6737,4.094-.9769,6.1467-.7346,4.974-3.5944,8.8501-6.5719,12.652-.3018,.3854-.9504,.4992-1.461,.7503-.8173-1.0569-.5854-2.0692-.298-2.9876,.3696-1.1809,.7847-2.3959,1.4417-3.4301,2.7764-4.3698,3.4898-9.2678,3.8232-14.2696,.2026-3.0394,.9729-5.88,2.6209-8.4634,.536-.8402,1.0346-1.7043,1.5582-2.5525,1.0034-1.6256,1.151-3.2498-.0541-5.0051-1.6057-.5269-3.3081-1.0854-4.9126-1.6118-.4671-1.9892,.7973-2.6561,1.9433-3.2828,1.672-.9144,3.4251-1.679,5.1238-2.5463,1.5219-.777,2.7328-1.8503,3.3432-3.5295,.7659-2.1072,2.287-3.4135,4.4637-3.9662,2.4885-.6319,4.9732-1.2785,7.4594-1.9196,2.1654-.5584,4.3736-.9978,6.2225-2.3899,2.1278-1.6021,2.7029-3.3723,1.8854-5.8914-.6306-1.9429-1.9794-2.8746-3.937-2.6207-.8949,.1161-1.7696,.3871-2.6693,.5915-.9837,1.164-1.8908,2.3589-2.9283,3.4273-.8573,.8829-1.7625,1.8278-2.8363,2.3671-1.6804,.8441-3.4993,1.438-5.3011,2.0061-1.2849,.4051-2.4254,.8971-3.4464,1.8499-2.7819,2.5962-5.9917,4.3892-9.8761,4.7779-2.0096,.201-3.8209,1.0022-5.5469,2.0297-1.3464,.8015-2.6477,1.9392-4.1099,2.2378-4.7248,.9649-8.0157,3.7853-10.6296,7.5685-1.4144,2.0472-2.6398,4.2267-3.9179,6.3661-1.7644,2.9535-4.2791,5.0895-7.3296,6.5658-.8915,.4315-1.9244,1.0809-3.0593,.4329-.3806-1.3886,.3134-2.4689,.9621-3.5037,1.324-2.1121,2.7537-4.1577,4.0974-6.2578,.4594-.718,.7918-1.5174,1.4789-2.8587-2.6145,.6155-4.6401,.9598-6.5788,1.5769-3.7881,1.2058-7.4958,2.6683-11.2969,3.8275-3.28,1.0003-6.5171,2.6477-10.028,1.3462-1.0923,.4933-2.0765,.929-3.0535,1.3802-7.273,3.3594-14.1644,7.3331-20.2513,12.5992-1.3277,1.1487-2.7614,1.8313-4.5504,1.1138-1.6042-.6434-2.5152-1.8097-2.7625-3.4136,.4732-2.1881,2.2386-3.1686,3.6549-4.4056,2.5048-2.1876,5.0801-4.2943,8.0638-6.803-2.7175,.3958-4.7722,.5-6.6796,1.858-11.9748,8.5261-24.9296,15.1733-38.8401,19.96-1.251,.4305-2.4183,.4903-3.6543,.2205-.9718-.2121-1.9383-.4482-2.9062-.6779-1.5542-.369-3.1075-.7415-4.6612-1.1124,1.6824-.8254,3.3324-1.2387,4.9782-1.6677,5.9803-1.5588,11.7086-3.7146,16.762-7.36,1.0576-.7629,2.0458-1.7219,2.8012-2.7796,1.018-1.4255,1.4923-3.0211-.3965-4.4741,.746-.8171,1.4148-1.5362,2.0689-2.2684,2.2636-2.5341,4.5221-5.0728,6.7826-7.6097l.3848-.2249-.271-.2021-.1383,.4039c-.6873,.1983-1.4297,.2902-2.0529,.6126-3.3162,1.7155-6.618,3.4604-9.8885,5.261-.8569,.4718-1.6559,1.1052-2.3593,1.7899-4.0154,3.9085-8.4089,7.3157-13.2963,10.0584-1.5821,.8878-3.2138,1.7399-4.9161,2.3469-1.9679,.7018-3.7679-.2824-4.6249-2.2314-.7584-1.7247-.3326-3.0289,1.4275-4.2642,.5429-.3811,1.1408-.6828,1.6943-1.05,2.9768-1.975,5.9568-3.9453,8.9176-5.9438,3.2619-2.2018,6.0372-4.9053,8.573-7.9264,2.0261-2.4138,4.1785-4.8145,6.6477-6.7441,4.9719-3.8853,7.8231-9.0578,10.2367-14.6965,1.0966-2.5621,.4528-4.6058-.4781-6.809-.3006,.0468-.4829,.033-.6231,.1032-3.6826,1.8433-7.0152,4.0621-8.7496,8.0389-.2962,.6791-.7278,1.3055-1.1427,1.9255-2.9902,4.4687-6.7055,8.2698-10.91,11.5842-3.4612,2.7285-7.0816,5.2571-10.5059,8.0294-2.8313,2.2922-5.7948,4.5044-7.4677,7.9316-.2682,.5495-.8579,1.0676-1.424,1.3246-2.5035,1.1369-4.8562,2.5002-7.1238,4.0605-1.771,1.2186-2.8925,1.0346-4.3475-.6332-.992-1.1371-2.1694-1.5885-3.5354-1.3608-1.5374,.2563-3.0866,.6239-4.5348,1.1889-2.0817,.8121-4.0571,1.8922-6.1156,2.7696-1.3436,.5727-2.7394,1.059-4.4907,1.0634,.1899-.6419,.1856-1.2131,.4684-1.4777,1.0236-.9581,2.0263-2.0488,3.2515-2.6581,2.5145-1.2505,5.1346-2.3112,7.7708-3.2897,5.2191-1.9372,10.3467-4.0504,15.1229-6.9463,1.8206-1.1039,3.4222-2.4381,4.1602-4.4821,.8096-2.2422,2.436-3.7122,4.2651-5.0573,2.0757-1.5265,4.2531-2.9425,6.169-4.6502,1.6591-1.4788,3.0498-3.2691,4.4793-4.9881,.3594-.4322,.4128-1.1189,.6823-1.91-2.3512,.0678-3.9373,1.1634-5.5414,2.1192-4.7879,2.8531-9.7116,5.4389-15.0259,7.1419-4.9624,1.5903-9.4607,3.9935-13.644,7.0503-.7386,.5397-1.4842,1.0714-2.2459,1.5775-2.9821,1.9812-6.0991,3.7003-9.5086,4.8452-1.0681,.3587-2.1327,.7215-3.3244,.5793-.2436-1.3152,.4863-2.0557,1.2611-2.6449,1.0516-.7997,2.1823-1.5179,3.3495-2.1386,2.6975-1.4345,4.9622-3.334,6.6708-5.8741,2.137-3.1769,4.9502-5.5856,8.3244-7.3588,1.4685-.7717,2.9638-1.4942,4.4152-2.2966,2.1053-1.1639,4.2238-2.3131,6.2592-3.5919,2.2033-1.3844,4.0706-3.1288,5.373-5.453,.6035-1.0769,1.3773-2.0902,2.2224-2.9934,1.8459-1.9728,3.2753-1.9863,5.3251-.2077,2.1461,1.8622,4.0424,1.9592,6.2069,.1102,1.1288-.9642,2.0607-2.1619,3.0613-3.2724,1.4431-1.6017,2.6955-3.4279,4.3362-4.7881,3.4641-2.872,6.8741-5.7687,9.9517-9.0717,1.1599-1.2449,2.7446-2.1173,4.2105-3.0405,.4767-.3002,1.1913-.2227,1.8879-.3322-.4376,2.3168-.9521,3.6748-2.4825,5.558-2.6225,3.2269-5.3553,6.364-8.0316,9.5474-.7661,.9113-1.8174,1.6981-1.6053,3.5086,2.2872-1.6168,4.2649-3.1954,6.4155-4.4856,2.2648-1.3588,4.6948-2.442,6.9776-3.6074,.2824-.931,.5719-1.71,.7501-2.5135,.2728-1.2301,.3013-2.4249-.3112-3.6298-1.3433-2.6423-1.2937-5.4334-.619-8.2441,.4708-1.9611,.9796-3.9131,1.541-6.1456-8.3573,4.5969-16.158,9.5359-23.891,14.7071-.0363-.5002,.0317-.894,.2423-1.1844,1.2655-1.7449,2.4456-3.5715,3.8755-5.1733,3.0762-3.446,6.9139-5.9651,10.7929-8.4049,2.8754-1.8085,5.7689-3.5882,8.5818-5.3357,.1887-1.5551,.3578-2.9492,.5124-4.2233,2.1689-2.4943,4.7912-1.5582,7.3789-1.2442,2.083-1.7453,4.225-3.4407,5.6198-5.871l.2946-.449-.5733,.1632Zm242.8417,63.1126h6.3469c-1.6838-18.1798-6.0859-35.5468-12.5604-52.4077-9.8931-25.7634-24.3094-48.6918-43.3709-68.6679-20.7347-21.7296-45.0214-38.224-72.8973-49.4458-24.9647-10.0499-50.9352-14.9075-77.7915-14.7751-37.6968,.1858-72.8923,9.8591-105.2177,29.2549-33.2238,19.9348-59.028,47.1283-77.0347,81.4673-12.2353,23.333-20.0439,48.1044-22.6004,74.5922h6.4058c5.0734-.0031,10.1468-.0062,15.2202-.0094h13.6516c5.7776-40.6133,22.931-75.3586,52.7015-103.517,29.8356-28.2198,65.4525-43.7812,106.4004-46.6923,23.5644-1.6753,46.6185,1.427,68.9155,9.4334,23.5724,8.4645,44.4327,21.3463,62.321,38.8969,28.6371,28.0964,45.3373,62.2219,50.905,101.891h13.3795c5.0751-.0068,10.1503-.0136,15.2254-.0204Zm.4637,39.2049l-8.0978-.0396h-20.7307c-3.2614,28.4636-12.4833,54.4619-28.4952,77.9894-15.9832,23.4854-36.3352,42.0503-61.4472,55.443-25.1212,13.3976-51.9131,20.1774-80.3047,20.278-33.9223,.1201-65.4667-8.844-93.7638-27.51-45.3288-29.901-70.8555-72.4106-77.8795-126.1906H28.597l-8.0864,.0152h-6.1964c2.4952,39.0883,20.4995,90.0756,59.3707,128.3218,40.5097,39.8582,89.2959,60.6926,146.1272,60.8263,57.0181,.1341,106.209-20.3772,146.7284-60.4976,35.6674-35.3162,54.9522-78.6025,60.1217-128.6359h-6.4938Zm-34.1747-22.6059c.2966-1.7276,.89-3.3675,.7938-4.9658-.2794-4.6426-.6702-9.2917-1.3167-13.8962-1.3632-9.7078-3.5757-19.236-6.6746-28.5444-9.5079-28.5595-25.5452-52.8228-48.045-72.8034-18.0295-16.0109-38.6143-27.5068-61.6451-34.6164-13.0735-4.0358-26.4699-6.4066-40.1233-7.0158-6.556-.2925-13.1464,.0492-19.7167,.2497-6.7413,.2057-13.3852,1.2792-20.0107,2.5098-13.7763,2.5588-26.9716,6.8891-39.6268,12.8682-21.4421,10.1304-39.8897,24.2201-55.3714,42.1725-15.6855,18.1887-26.9056,38.8266-33.7009,61.866-2.919,9.8968-4.8022,19.9976-5.9136,30.2472-.1234,1.1376-.1127,2.2899-.1737,3.6483,.8093-.3268,1.3372-.5374,1.8632-.7527,5.6747-2.3228,11.302-4.7709,17.0361-6.9367,6.595-2.491,13.2254-4.8783,19.5164-8.0904,9.5649-4.8837,17.6578-11.5394,24.0952-20.1599,4.5031-6.0302,9.7227-11.4019,15.2207-16.5053,1.6979-1.576,3.536-3.0671,5.5114-4.2649,4.6138-2.7977,9.3401-5.4113,14.0386-8.0679,7.9568-4.4989,15.9673-8.9165,23.2962-14.4199,4.2571-3.1967,8.3828-6.5679,12.6211-9.7902,6.5282-4.9632,13.5082-9.0674,21.5956-10.9751,4.7419-1.1186,9.3991-1.6106,14.166,.2624,12.5875,4.946,24.995,10.2611,37.0763,16.3647,11.0463,5.5807,20.1183,13.4812,28.1342,22.7614,2.6123,3.0243,5.7853,5.2275,9.8442,5.9069,1.8004,.3013,3.5999,.6135,5.3892,.9733,4.3623,.8771,8.1407,2.6484,10.8474,6.4405,1.2881,1.8045,2.9729,3.3623,4.6444,4.8442,1.1681,1.0356,2.5678,1.8467,3.9525,2.5943,3.9755,2.1465,7.1726,5.0371,9.3913,9.0272,1.1779,2.1182,2.9293,3.7791,4.728,5.4258,4.9125,4.4974,9.6951,9.1368,14.522,13.7275,1.3275,1.2625,2.5692,2.622,3.9545,3.816,8.7529,7.544,18.9501,12.4333,30.0799,16.0991Zm-88.5292-45.1347c-2.4705-3.0437-4.7664-5.9224-8.1389-7.7242-2.2241-1.1883-4.2285-2.5667-5.3133-5.0123-.3081-.6947-1.0213-1.3268-1.704-1.7134-1.3626-.7715-2.7772-1.5501-4.2703-1.9707-2.7673-.7795-5.0799-2.249-6.6992-4.5118-1.4149-1.9772-3.2867-2.8363-5.4385-3.6217-3.8731-1.4137-7.841-2.6381-11.142-5.3431-1.6124-1.3213-3.6019-2.069-5.8008-1.8588-2.4738,.2365-4.648-.6517-6.4439-2.182-1.7339-1.4775-3.7751-1.821-5.7874-1.8193-4.3262,.0036-8.1563-1.2744-11.6974-3.6393-1.5555-1.0388-3.2265-1.6273-5.1431-1.5191-1.4114,.0797-2.8354-.0697-4.2476,.0028-1.718,.0882-3.2958-.3232-4.8119-1.0643-1.7138-.8378-3.392-1.7563-5.1412-2.5107-.8947-.3859-1.9445-.7723-2.865-.6624-1.8704,.2233-3.7723,.5935-5.5278,1.2565-1.8975,.7166-3.6616,.8373-5.5594,.1752-1.0712-.3737-2.2085-.5578-3.021-.7555-2.1501,1.0897-1.7457,2.7351-1.535,4.1498,.6203,4.1642,1.5504,8.287,2.0507,12.4629,.3857,3.2205-.8729,5.4385-4.5,5.3267-1.3672-.0421-2.7194-.6138-4.0757-.9548-1.8329-.4608-3.64-1.1349-5.5005-1.3486-2.4503-.2814-5.0195,.2098-7.0101-1.5752-1.4745,1.2972-1.4396,1.2953-1.3827,2.3499,.1298,2.4061,.2565,4.8136,.3057,7.2221,.0128,.6295-.1613,1.3114-.4248,1.8893-.9733,2.1346-1.4404,4.3777-1.6171,6.6971-.1162,1.525-.0443,2.9797,1.0984,4.2039,.3084,.3304,.5132,.9074,.4995,1.3632-.0665,2.2226,.2583,4.4735-.5924,6.6439-.9684,2.4706-.94,5.0287-.2444,7.5506,.6949,2.5191,1.1358,5.0091,.3581,7.5957-.257,.8548-.086,1.6556,.6211,1.9301,1.3242-.1704,2.37-.3879,3.4218-.4221,1.8311-.0595,3.6661,.0127,5.4989-.0109,.5707-.0073,1.1629-.071,1.7049-.2391,1.3381-.4152,2.667-.8693,3.9739-1.3741,2.3345-.9017,4.3547-.2253,5.8701,1.5164,1.3661,1.5701,1.1564,3.5299,.4676,5.4279-.2817,.7763-.6156,1.597-.6201,2.3992-.0166,3.0012-.3697,5.9326-1.0938,8.8539-.4369,1.7622,.6225,2.9093,2.4321,2.9092,.8156,0,1.6462-.1768,2.4438-.3775,2.6203-.6592,5.2058-.9873,7.7717,.2566,.4189,.2031,.977,.1243,1.4716,.1656,3.3972,.2837,6.5467-.5093,9.6183-1.9599,2.6443-1.2488,5.3687-1.9417,8.4287-1.2221,2.0533,.4828,4.2995,.4658,6.2209-.9327,.5305-.3861,1.1738-.6175,1.7662-.9184,3.0695-1.5589,6.2176-2.7098,9.7706-2.3883,1.7835,.1614,3.399-.5877,4.9655-1.3993,.952-.4932,1.9729-.8522,2.9338-1.33,2.2938-1.1404,4.8655-.9125,7.2796-1.5245,2.5118-2.5386,5.3445-4.3601,9.1158-4.4577,1.3664-.0354,2.8441-.3828,4.0468-1.0147,1.6733-.8791,3.1729-2.1117,4.6785-3.2811,1.7159-1.3327,3.3961-2.6571,5.683-2.8658,2.0612-.1881,3.8573-1.1531,5.3495-2.4701,1.2904-1.1389,2.3527-2.5679,3.3726-3.9727,1.0762-1.4823,2.509-2.633,4.1358-3.0755,4.1639-1.1325,7.0414-3.8286,9.9941-7.3252Zm33.2725,83.1111c-1.2266,.072-2.4898-.0214-3.674,.2412-13.5124,2.997-26.9216,6.4008-40.1439,10.5044-25.4469,7.8976-50.1168,17.7946-74.2168,29.1171-18.5636,8.7213-36.5789,18.4933-54.2667,28.8677-4.3617,2.5583-8.6295,5.2765-13.2058,8.084,1.5202,.7308,2.7631,1.3283,3.8903,1.8701,.4427-.2541,.6629-.3674,.8699-.5011,17.0998-11.0462,34.7836-21.0858,52.8036-30.5375,25.1531-13.193,51.2617-24.1617,78.1171-33.3759,16.3127-5.597,32.8719-10.3176,49.8263-14.27Zm13.6646,10.8964c-3.0753-.5311-13.7579,1.6068-36.9499,8.239-51.1465,14.6263-98.8059,37.0601-144.2815,65.2437,1.6954,.6103,3.0659,1.1037,4.3906,1.5806,15.47-9.9715,31.3875-18.9184,47.5518-27.4441,19.3162-10.1881,39.265-18.9678,59.6249-26.8201,17.873-6.8931,36.0698-12.7938,54.7148-17.2543,4.9807-1.1916,9.966-2.3637,14.9492-3.5447Zm-156.6042,80.2659c3.4644-2.1042,6.7096-4.1182,9.9974-6.06,3.2878-1.9418,6.6071-3.8314,9.9332-5.7073,3.3973-1.9162,6.8023-3.8201,10.2358-5.6703,3.3602-1.8107,6.7552-3.557,10.1445-5.3131,3.3892-1.7561,6.772-3.526,10.1911-5.2222,3.4169-1.6951,6.8602-3.3388,10.3196-4.9457,3.4585-1.6064,6.9392-3.1666,10.4323-4.6967,3.4919-1.5297,7.0019-3.0193,10.521-4.4855,3.5951-1.4978,7.1992-2.9753,10.821-4.4071,3.5437-1.4009,7.0999-2.7735,10.6779-4.0837,3.577-1.3098,7.1749-2.566,10.7877-3.7736,3.6132-1.2076,7.2486-2.3504,10.8882-3.4765,3.6393-1.126,7.2837-2.2395,10.9485-3.2785,3.7454-1.0618,7.5065-2.0732,11.2825-3.0204,3.697-.9275,7.4372-1.6842,11.129-2.6306,3.5778-.9172,7.2628-1.4215,10.7664-2.6856-.8605-.1769-1.6994-.2352-2.4976-.0819-3.5012,.6725-7.0103,1.3218-10.4808,2.1327-13.7185,3.2054-27.3182,6.8637-40.7468,11.1244-28.6641,9.0945-56.3607,20.539-83.0752,34.3586-12.0951,6.2569-24.0053,12.8411-35.6676,19.872-.4341,.2617-.796,.643-1.3928,1.1342l4.7846,.9169Zm159.6972-53.9229l-.2642-.518c-11.5518,2.5866-22.9679,5.6695-34.2675,9.2112-16.6988,5.234-32.989,11.5379-49.0669,18.4213-19.3901,8.3013-38.1629,17.8317-56.4907,28.2534-.435,.2473-.7971,.623-1.5036,1.1863,1.6071,.0836,2.7746,.0717,3.9208,.2224,1.4063,.1848,2.5362-.2968,3.7389-.9749,7.2275-4.0754,14.4369-8.1903,21.7692-12.071,12.7579-6.7521,25.9072-12.6895,39.1316-18.466,23.0468-10.0669,46.5998-18.6471,71.1005-24.4877,.6678-.1592,1.289-.5136,1.9319-.777Zm-111.1223,56.3786c2.6236-.345,5.2513-.6635,7.8677-1.0565,.5518-.0829,1.0803-.4055,1.5894-.6744,13.202-6.9739,26.6977-13.3315,40.3968-19.2624,12.5467-5.432,25.2494-10.4569,38.2844-14.6071,1.0578-.3368,1.9603-.8049,2.5109-1.8931-31.5511,9.1983-61.6613,21.8922-90.6492,37.4936Zm-18.5016-221.6275c.9854-3.2171,1.6388-6.4493,1.666-9.7682,.0223-2.7234-1.3864-3.8841-4.1246-3.6282-.3299,.0308-.6673,.0502-.9844,.1367-4.0649,1.1088-8.1523,2.145-12.1819,3.3711-3.6248,1.103-6.7512,3.1228-9.4263,5.8133-.4187,.4211-.7552,.9239-1.1564,1.422,1.6797,.5765,3.1344,1.1862,4.7462,.4354,1.9692-.9173,4.1079-1.102,6.2397-1.3324,2.9799-.3221,5.5662,.94,7.991,2.2648,2.3351,1.2758,4.6408,1.5076,7.2307,1.2855Zm22.1622,240.6009c2.8118-.8708,5.749-.9449,8.9105-1.4952-.1763,2.9067,1.5777,5.5132,.0657,8.4012,1.9963,.143,3.7505-.3634,5.8654-.8538-.7968-.5978-1.2896-.9674-1.662-1.2468-.7487-4.9515-1.4677-9.7072-2.1689-14.3448l1.257-1.7381c-2.3236,.3406-4.1677,.6109-6.475,.9491l1.8319,1.4062c.2976,2.0387,.5921,4.0561,.8923,6.1121-1.595,.2608-2.9766,.5082-4.3651,.7078-1.3849,.1991-2.7766,.3503-4.3476,.5451-.3199-2.1433-.6227-4.1714-.911-6.1026,.4362-.5692,.7609-.9928,1.1353-1.4813-2.7188-.22-5.8677,.3574-5.8487,1.1604,.3531,.1946,.7624,.4203,1.2767,.7038,.6815,4.3538,1.3225,8.7828,2.0998,13.1877,.2036,1.1537-.4369,1.9029-1.0782,2.995,2.2521-.2146,4.179-.3233,6.2396-1.1407l-1.6068-1.0105c-.3676-2.2357-.7173-4.362-1.1107-6.7545Zm-66.9362-15.7332c.2234,1.199,.6382,2.0321,.4639,2.7148-1.1632,4.5554-2.4522,9.0787-3.6515,13.4347-.5834,.3434-.9474,.5577-1.7055,1.004,2.2216,.4762,3.9039,1.2899,5.9239,1.397-1.5073-2.385,.1238-4.2256,.4306-6.0686,2.2667,.2563,4.378,.655,6.4954,.6913,2.3114,.0397,3.853-1.2914,4.5905-3.4917,.7105-2.1198,.2008-4.2303-1.4672-5.6249-.6263-.5236-1.3578-1.0077-2.1237-1.2628-2.884-.9608-5.802-1.8198-8.9565-2.7939Zm95.45,6.4052l-.4635-.2766c-.3734,1.2532-.8546,2.3521-2.5409,1.9659-.5333-1.7139-1.0887-3.4988-1.6591-5.3322,2.3853-1.2944,4.6159-1.6933,7.1847-.8376-.631-.7868-1.262-1.5736-1.9313-2.4083-3.3302,1.0529-6.4838,2.0443-9.6297,3.0596-.174,.0562-.2839,.3109-.5274,.5939l1.6165,.672c1.1458,3.7403,2.2989,7.6235,3.5362,11.4797,.443,1.3806,.9404,2.7038-.291,4.3801,4.1338-1.2175,7.7444-2.2809,11.2903-3.3253,.4112-1.136,.6793-2.0848,.2353-3.6349-1.4601,3.5044-4.4759,3.4297-7.0623,4.4371-.7737-2.5305-1.5125-4.947-2.1495-7.0306,1.1783-1.7356,2.14-.5121,3.5789,.1163-.4855-1.5783-.8363-2.7187-1.1871-3.8591Zm-108.4392-11.4197c-1.2805-.686-1.7124,.0402-2.2055,.5786-2.9201,3.1887-5.8702,6.3511-8.7303,9.5929-1.0236,1.1602-1.9472,2.3445-3.7948,2.2839l.0583,.5451c1.126,.4761,2.2521,.9522,3.7371,1.5801-.3121-.8403-.4666-1.2562-.634-1.7067,.9582-1.0792,1.8894-2.1279,2.8889-3.2536,1.5981,.7435,3.1351,1.4586,4.5857,2.1335-.2156,1.6694-.3938,3.0484-.5455,4.2226l-1.5442,.8237c2.0404,.8793,3.7382,1.6109,5.436,2.3426l.5859-.3307c-1.0646-.8318-1.5124-1.7914-1.3494-2.9911,.3236-2.3813,.5682-4.7745,.7918-7.1678,.2687-2.8766,.4816-5.7585,.7199-8.653Zm34.3922,22.6626c1.672,.2627,3.2769,.5147,4.8886,.7679,.2778,1.5409,.5256,2.9158,.7599,4.2154-.4234,.3786-.736,.6582-1.3662,1.2217,2.3013,.1949,4.1266,.8539,6.0074,.6196-.6212-.9922-1.3881-1.7809-1.639-2.709-.5173-1.9132-.7562-3.9014-1.1147-5.8578-.5082-2.7729-1.0239-5.5443-1.5303-8.3175-.1576-.863-.3234-1.7-1.7207-1.3881-1.3135,2.6219-2.5879,5.4065-4.0768,8.0712-1.5576,2.7876-2.2749,6.1157-5.4867,8.1988,1.6649,.2457,2.9201,.4309,4.7615,.7027l-1.467-1.5759c.6688-1.3311,1.2961-2.5796,1.9843-3.949Zm88.1979-17.9269c-1.3629-2.1706-1.1147-3.4672,.6982-4.513,1.3832-.7981,2.8463-.7367,4.3389-.3562,.4001,.102,.8266,.1011,1.4738,.1734-.8557-.9523-1.5006-1.6699-2.3199-2.5816-1.7894,.8344-3.6708,1.4803-5.2877,2.5326-1.5155,.9863-2.3949,2.5664-1.8224,4.5222,.5747,1.9637,1.9549,2.9884,3.9734,3.2296,2.0541,.2455,4.1017,.5451,6.1547,.8014,1.0883,.1358,1.9232,.5953,2.1542,1.7337,.2413,1.1891,.1287,2.305-.8604,3.2016-1.2628,1.1447-2.7881,1.4408-4.3935,1.3394-1.2013-.0758-2.3907-.3392-3.7536-.5444,.4086,1.3556,1.6456,1.5264,2.2429,2.2242,.8387-.1058,1.566-.2538,2.2975-.2792,2.1148-.0735,3.8289-1.0727,5.3402-2.3992,1.4746-1.2942,2.109-3.0122,1.5941-4.9525-.4861-1.8319-1.7416-3.0115-3.631-3.3453-1.2175-.2151-2.4644-.2654-3.699-.3806-1.5571-.1453-3.1151-.2815-4.5004-.4062Zm-56.8741,8.0996c-1.3836-.1685-2.4492-.3843-3.5184-.4041-1.0672-.0198-2.149,.0893-3.2054,.2598-3.4618,.5586-6.5083,3.4046-7.037,6.865-.8855,5.7948,2.1762,9.8135,7.8138,10.5973,1.953,.2715,3.9755,.0432,5.9288,.0432q1.3317-1.6768,1.2579-2.9107c-.5811,.3536-1.1135,.7343-1.6926,1.0204-3.1283,1.5458-6.7187,.6721-8.3692-1.4955-2.2459-2.9495-2.188-8.1432,.173-10.9708,1.9838-2.3757,5.3049-2.8331,7.8449-1.0758,.4498,.3112,.8866,.641,1.8496,1.3395-.468-1.4632-.7527-2.3531-1.0454-3.2683ZM60.5671,206.0323c-2.2906,.3204-4.3048,.9244-6.1697,2.2807l1.348,5.1925c1.7748-2.7507,3.2982-5.1119,4.8217-7.4732Zm50.632,95.5869c1.4393,2.0467,3.3132,1.7255,4.8045,1.9721,1.5864,.2624,3.2158,1.0449,4.9424,.1435-3.0876-.6702-6.1752-1.3404-9.7469-2.1157Zm247.0041-46.6681c.0125,.2539,.0248,.5078,.0372,.7618,3.5151-.5551,7.0303-1.1102,10.5454-1.6653l-.0671-.4815c-3.5051,.4617-7.0103,.9234-10.5155,1.3851Zm-11.6056,1.9865c.0209,.2573,.0419,.5145,.0629,.7718,1.2564-.1812,2.5201-.3221,3.7676-.552,2.4653-.4543,3.0243-.6837,3.6567-1.5317-2.6469,.4638-5.067,.8878-7.4872,1.3119Zm22.722-16.1317l-.0151,.2584h3.5305l-.0057-.2584h-3.5098Zm-215.4241,43.7707l.0002-.2129h-1.2538v.2129h1.2537Zm12.4847-9.871l-.0052-.4757-.8013,.1298,.0025,.2179,.804,.128Z"></path>
    <path class="cls-14" d="M411.6496,212.5026c2.4991,2.1143,2.935,4.3562,1.1873,6.106-1.5193,1.5211-4.6477,1.4745-6.0906-.0909-1.615-1.7521-1.1887-3.897,1.2989-6.0387-.8201-.8644-1.8123-1.7557-1.464-3.1021,.175-.6766,.5375-1.4061,1.0363-1.878,1.2671-1.1985,3.5291-1.0254,4.7362,.2328,1.2329,1.285,1.0209,2.7215-.704,4.7709Zm-2.575,6.1161c1.8837-.1021,2.3398-.5016,2.4639-2.0421,.1538-1.9102-.5671-3.0297-2.1573-3.35-1.6311,2.0798-1.693,2.9406-.3066,5.392Zm-.5219-10.6654c0,1.0536-.0688,1.8595,.0201,2.6476,.0822,.7282,.5989,1.2824,1.34,1.1022,.453-.1102,1.05-.6299,1.1317-1.0526,.1597-.8274,.0037-1.7157-.0299-2.8633-.9387,.0634-1.5951,.1077-2.4619,.1662Z"></path>
    <path class="cls-17" d="M9.2383,218.7689c.0129-1.9907,.1054-3.985,.0161-5.9711-.0867-1.9284,.5566-3.9365-.7866-5.8731h7.5473c.2952,.6005,.6109,1.2424,1.1051,2.2476-1.089-.4875-1.8163-.9197-2.6031-1.1347-.7592-.2074-1.5797-.1905-2.5147-.2867v4.1799c.8796,.8496,1.3383-.3589,2.2551-.5963,.04,.9075,.0772,1.7504,.1179,2.6728l-2.3151-.9183v5.6601l.0055,.8777-2.4915-.0007-.3361-.8571Z"></path>
    <path class="cls-22" d="M21.1541,219.1761c-.3772-.8371-.6631-1.4716-.9491-2.1061l.2942-.2232c.4914,.3768,.9727,.7678,1.4764,1.1273,.9896,.7065,2.0977,.9048,3.3007,.8073,.9507-.0771,1.544-.592,1.8739-1.4048,.3534-.8708,.0936-1.6498-.6609-2.1974-.6657-.4832-1.3885-.8871-2.0784-1.3377-.8274-.5405-1.742-.9926-2.4498-1.6618-1.5206-1.4377-1.2849-3.5919,.5583-4.5659,.9018-.4766,2.0222-.6338,3.0619-.7228,.7081-.0606,1.4477,.2474,2.2905,.4136l.7305,1.6904c-.2665,.0784-.4631,.1947-.523,.1453-1.0731-.8855-2.2981-1.3894-3.6645-1.07-.5528,.1292-1.1869,.6163-1.4495,1.1163-.3968,.7555,.043,1.4652,.7656,1.8694,1.008,.5639,2.0719,1.028,3.0786,1.5941,2.1834,1.2278,3.0489,2.6574,2.6634,4.2963-.3796,1.6136-2.259,2.8661-4.4983,2.8045-1.2166-.0335-2.4253-.3545-3.8205-.5746Z"></path>
    <path class="cls-17" d="M432.0244,218.3251c.6483-1.2593,1.2679-2.4631,2.0319-3.9471-1.1152-.0711-1.824-.0892-2.5264-.1665-1.6656-.1832-3.0425-1.4396-3.2532-2.9332-.2032-1.4408,.9138-3.5162,2.221-4.127,2.7974-1.3069,5.6484,.4891,6.0299,3.754,.4016,3.4374-1.8921,7.7575-5.9725,8.7552-.3089-.5602-.6381-1.1571-1.0972-1.9898,.9686,.247,1.6278,.4151,2.5665,.6544Zm-.6768-10.537c-1.0629,1.8964-1.052,3.5879-.0587,5.3378h2.2791c.6886-1.9059,.8686-3.6171-.3492-5.3378h-1.8712Z"></path>
    <path class="cls-14" d="M419.2294,219.6724c-.2748-.5483-.5543-1.1062-.9816-1.9589,.8886,.2371,1.4667,.3913,2.0125,.537,1.4086-.9737,1.8625-2.3652,2.2192-4.0236-.7815,0-1.5142,.0624-2.2328-.012-1.9493-.2018-3.1187-1.3835-3.194-3.1452-.0909-2.1268,1.1717-3.894,3.0306-4.242,2.6329-.4929,4.7248,1.1093,5.0123,3.8387,.4557,4.3264-1.4178,7.2456-5.8662,9.006Zm.7452-6.4604c.744-.0341,1.4956-.0685,2.2714-.1041,.5034-1.9343,.7148-3.5767-.325-5.3624-.6743,.0413-1.3565,.0831-1.927,.118-.9888,1.7755-.9537,3.3382-.0194,5.3484Z"></path>
    <path class="cls-22" d="M41.7193,208.9966c-1.2484-.4579-2.2526-.8262-3.6733-1.3473,0,2.4087-.0934,4.3796,.0271,6.3373,.1133,1.8405-.6579,3.8194,.8193,5.6126h-4.2327c.3439-.5942,.8419-1.0596,.8518-1.5351,.0688-3.3101,.0364-6.6223,.0364-9.8569-1.4699-.4953-2.44,.0477-3.7003,1.325,.3157-1.2066,.4911-1.8772,.6832-2.6111h8.3243l.8643,2.0753Z"></path>
    <path class="cls-20" d="M402.2696,219.5852h-3.4102c.7999-3.3847,.2583-6.7672,.3607-10.1146,.0096-.3148-.4044-.6424-.6904-1.0659,.5436-1.0937,1.3098-1.9523,3.0331-1.4462,.0802,.4449,.255,.9798,.2601,1.5162,.0251,2.664-.034,5.3293,.0218,7.9923,.0212,1.0171,.2695,2.0294,.425,3.118Z"></path>
    <path class="cls-22" d="M12.0659,219.6267l-.0055-.8777c1.8209-.1489,3.7716,.4445,5.3056-1.3447l.261,.4954c-.2756,.5472-.5512,1.0945-.8697,1.7269h-4.6914Z"></path>
    <path class="cls-22" d="M9.2383,218.7689l.3361,.8571c-.2875,.0174-.5751,.0348-1.2724,.0769l.9363-.9339Z"></path>
    <path class="cls-2" d="M330.7369,247.1908c-16.9544,3.9525-33.5135,8.6731-49.8263,14.27-26.8554,9.2142-52.964,20.1829-78.1171,33.3759-18.0201,9.4517-35.7038,19.4913-52.8036,30.5375-.207,.1338-.4272,.2471-.8699,.5011-1.1272-.5418-2.3701-1.1393-3.8903-1.8701,4.5763-2.8075,8.8441-5.5257,13.2058-8.084,17.6878-10.3744,35.7032-20.1464,54.2667-28.8677,24.1-11.3224,48.7699-21.2195,74.2168-29.1171,13.2223-4.1036,26.6315-7.5074,40.1439-10.5044,1.1842-.2626,2.4475-.1693,3.674-.2412Z"></path>
    <path class="cls-2" d="M344.4015,258.0872c-4.9832,1.181-9.9685,2.3531-14.9492,3.5447-18.6451,4.4605-36.8418,10.3611-54.7148,17.2543-20.3599,7.8524-40.3088,16.632-59.6249,26.8201-16.1642,8.5257-32.0818,17.4726-47.5518,27.4441-1.3247-.4769-2.6953-.9702-4.3906-1.5806,45.4756-28.1836,93.1349-50.6173,144.2815-65.2437,23.192-6.6322,33.8746-8.7701,36.9499-8.239Z"></path>
    <path class="cls-5" d="M187.7973,338.3531l-4.7846-.9169c.5968-.4911,.9588-.8725,1.3928-1.1342,11.6623-7.0309,23.5725-13.6151,35.6676-19.872,26.7146-13.8196,54.4111-25.2642,83.0752-34.3586,13.4286-4.2606,27.0283-7.9189,40.7468-11.1244,3.4705-.8109,6.9796-1.4602,10.4808-2.1327,.7982-.1533,1.637-.095,2.4976,.0819-3.5036,1.2642-7.1886,1.7684-10.7664,2.6856-3.6918,.9464-7.4321,1.7031-11.129,2.6306-3.7759,.9472-7.5371,1.9585-11.2825,3.0204-3.6648,1.039-7.3092,2.1525-10.9485,3.2785-3.6396,1.1261-7.275,2.2689-10.8882,3.4765-3.6128,1.2076-7.2107,2.4638-10.7877,3.7736-3.5781,1.3102-7.1342,2.6828-10.6779,4.0837-3.6218,1.4318-7.2259,2.9093-10.821,4.4071-3.5191,1.4662-7.0291,2.9558-10.521,4.4855-3.4931,1.5301-6.9738,3.0902-10.4323,4.6967-3.4594,1.6068-6.9027,3.2505-10.3196,4.9457-3.4191,1.6963-6.8019,3.4662-10.1911,5.2222-3.3893,1.7561-6.7843,3.5024-10.1445,5.3131-3.4335,1.8503-6.8386,3.7542-10.2358,5.6703-3.3261,1.876-6.6454,3.7655-9.9332,5.7073-3.2878,1.9418-6.5329,3.9558-9.9974,6.06Z"></path>
    <path class="cls-5" d="M347.4945,284.4302c-.6429,.2634-1.2642,.6178-1.9319,.777-24.5007,5.8406-48.0537,14.4208-71.1005,24.4877-13.2244,5.7765-26.3737,11.7139-39.1316,18.466-7.3324,3.8807-14.5417,7.9955-21.7692,12.071-1.2027,.6781-2.3326,1.1597-3.7389,.9749-1.1462-.1506-2.3137-.1388-3.9208-.2224,.7065-.5633,1.0685-.9389,1.5036-1.1863,18.3278-10.4217,37.1006-19.9521,56.4907-28.2534,16.078-6.8834,32.3681-13.1873,49.0669-18.4213,11.2997-3.5417,22.7158-6.6246,34.2675-9.2112l.2642,.518Z"></path>
    <path class="cls-5" d="M236.3722,340.8087c28.988-15.6013,59.0981-28.2953,90.6492-37.4936-.5506,1.0882-1.4531,1.5563-2.5109,1.8931-13.035,4.1502-25.7378,9.1752-38.2844,14.6071-13.6991,5.9309-27.1948,12.2885-40.3968,19.2624-.5092,.269-1.0377,.5916-1.5894,.6744-2.6164,.393-5.244,.7114-7.8677,1.0565Z"></path>
    <path class="cls-7" d="M420.1684,231.8203c-.8253,6.4468-1.6505,12.8936-2.5178,19.6685-6.2478-4.7986-12.1456-9.3283-18.2961-14.0523,3.4901-1.4697,6.7297-2.8115,9.9478-4.2029,.9539-.4124,1.8472-.9647,2.7683-1.4529l8.0978,.0396Z"></path>
    <path class="cls-9" d="M28.597,231.7904c2.9089,1.308,5.8137,2.6253,8.7287,3.9196,1.2015,.5334,2.425,1.0172,3.9912,1.6707-6.0189,4.8481-11.9966,9.3138-18.2047,14.0515-.8944-6.7473-1.7481-13.187-2.6017-19.6266l8.0864-.0152Z"></path>
    <path class="cls-5" d="M157.087,272.1237c-27.5744-7.4628-55.5046-13.0711-84.046-16.0347-.349-.5441-.7155-1.0829-1.0476-1.6422-.3335-.5618-.6327-1.1441-1.1777-2.1386,29.516,4.0265,58.2044,9.9572,86.223,18.9786l.0483,.8369Z"></path>
    <path class="cls-9" d="M20.9845,192.6332c.6947-5.4062,1.3895-10.8123,2.1101-16.4194,6.1199,4.6932,12.0385,9.2319,18.2043,13.9602-1.823,.8767-3.4586,1.6632-5.0942,2.4498-5.0734,.0031-10.1468,.0062-15.2202,.0094Z"></path>
    <path class="cls-9" d="M404.4793,192.6358c-1.587-.7659-3.1739-1.5318-5.0472-2.4359,5.9769-4.5895,11.8311-9.0849,17.7025-13.5935,.9261,1.7042,1.92,8.0063,2.5702,16.009-5.0751,.0068-10.1503,.0136-15.2254,.0204Z"></path>
    <path class="cls-1" d="M142.4311,281.8697c-5.2585-1.1327-10.4994-2.3566-15.7796-3.3767-7.8841-1.5232-15.7813-2.9896-23.7004-4.3167-6.6966-1.1222-13.432-2.012-20.2936-3.0258-.5587-.7999-1.1619-1.6634-1.8134-2.5962,4.5388-.7791,44.4126,7.4586,62.1678,12.768-.1935,.1825-.3871,.365-.5807,.5475Z"></path>
    <path class="cls-1" d="M268.5467,350.4542c.3508,1.1404,.7016,2.2808,1.1871,3.8591-1.4389-.6283-2.4005-1.8519-3.5789-.1163,.637,2.0836,1.3759,4.5001,2.1495,7.0306,2.5864-1.0074,5.6022-.9327,7.0623-4.4371,.444,1.5501,.1759,2.4989-.2353,3.6349-3.5459,1.0444-7.1565,2.1078-11.2903,3.3253,1.2314-1.6763,.734-2.9995,.291-4.3801-1.2373-3.8561-2.3904-7.7393-3.5362-11.4797l-1.6165-.672c.2435-.2829,.3534-.5377,.5274-.5939,3.1459-1.0154,6.2995-2.0068,9.6297-3.0596,.6694,.8347,1.3004,1.6215,1.9313,2.4083-2.5688-.8557-4.7994-.4568-7.1847,.8376,.5705,1.8334,1.1259,3.6183,1.6591,5.3322,1.6862,.3863,2.1674-.7126,2.5409-1.9659l.4635,.2766Z"></path>
    <path class="cls-2" d="M160.1074,339.0345c-.2383,2.8946-.4512,5.7764-.7199,8.653-.2236,2.3933-.4682,4.7865-.7918,7.1678-.163,1.1997,.2847,2.1593,1.3494,2.9911l-.5859,.3307c-1.6978-.7316-3.3956-1.4633-5.436-2.3426l1.5442-.8237c.1517-1.1742,.3298-2.5532,.5455-4.2226-1.4506-.6749-2.9875-1.3899-4.5857-2.1335-.9995,1.1256-1.9307,2.1744-2.8889,3.2536,.1673,.4505,.3218,.8664,.634,1.7067-1.485-.6279-2.6111-1.104-3.7371-1.5801l-.0583-.5451c1.8476,.0606,2.7712-1.1237,3.7948-2.2839,2.86-3.2418,5.8102-6.4042,8.7303-9.5929,.4931-.5385,.925-1.2646,2.2055-.5786Zm-3.4177,4.4447l-.4772-.1765-3.8564,4.3833c1.3096,.5902,2.3995,1.0814,3.7124,1.673,.2251-2.1308,.4232-4.0053,.6212-5.8798Z"></path>
    <path class="cls-5" d="M194.4996,361.6971c-.6881,1.3694-1.3155,2.618-1.9843,3.949l1.467,1.5759c-1.8413-.2717-3.0966-.457-4.7615-.7027,3.2118-2.0832,3.9291-5.4112,5.4867-8.1988,1.4889-2.6647,2.7633-5.4493,4.0768-8.0712,1.3973-.312,1.5631,.525,1.7207,1.3881,.5065,2.7732,1.0221,5.5446,1.5303,8.3175,.3586,1.9564,.5974,3.9446,1.1147,5.8578,.2509,.9282,1.0179,1.7169,1.639,2.709-1.8808,.2343-3.7061-.4247-6.0074-.6196,.6302-.5636,.9428-.8431,1.3662-1.2217-.2343-1.2996-.4821-2.6745-.7599-4.2154-1.6117-.2532-3.2166-.5052-4.8886-.7679Zm4.6537-.4187c-.2221-1.2072-.3855-2.1469-.5698-3.0826-.1897-.9629-.3998-1.9218-.7048-3.3777-1.0723,2.2412-1.9011,3.9734-2.784,5.819,1.3942,.2203,2.5821,.408,4.0587,.6413Z"></path>
    <path class="cls-1" d="M282.6975,343.7702c1.3853,.1246,2.9433,.2609,4.5004,.4062,1.2346,.1152,2.4815,.1655,3.699,.3806,1.8894,.3338,3.1449,1.5134,3.631,3.3453,.5149,1.9404-.1195,3.6583-1.5941,4.9525-1.5113,1.3264-3.2254,2.3256-5.3402,2.3992-.7315,.0255-1.4587,.1734-2.2975,.2792-.5973-.6978-1.8342-.8686-2.2429-2.2242,1.3629,.2052,2.5523,.4685,3.7536,.5444,1.6053,.1014,3.1307-.1947,4.3935-1.3394,.9891-.8966,1.1017-2.0125,.8604-3.2016-.231-1.1384-1.0659-1.5979-2.1542-1.7337-2.0529-.2563-4.1005-.5559-6.1547-.8014-2.0185-.2411-3.3987-1.2659-3.9734-3.2296-.5724-1.9558,.3069-3.5359,1.8224-4.5222,1.6169-1.0523,3.4983-1.6982,5.2877-2.5326,.8193,.9117,1.4641,1.6293,2.3199,2.5816-.6472-.0723-1.0737-.0714-1.4738-.1734-1.4926-.3805-2.9557-.4419-4.3389,.3562-1.8128,1.0459-2.0611,2.3425-.6982,4.513Z"></path>
    <path class="cls-3" d="M127.0721,292.0618c-7.5887-1.2971-15.1754-2.6056-22.7671-3.8848-2.3682-.399-4.75-.7179-7.1252-1.0757-1.9526-.2941-2.0808-.3903-3.7279-2.8667,11.4119,1.9555,22.573,4.1562,33.5956,7.0376,.0081,.2632,.0163,.5263,.0245,.7895Z"></path>
    <path class="cls-10" d="M363.9984,242.1831c-2.0499,.199-4.1139,.3052-6.1468,.6154-4.9713,.7586-9.9335,1.5805-14.8889,2.4378-3.2508,.5624-6.4808,1.2441-9.7264,1.8384-.5236,.0959-1.0798,.0135-1.7073-.323,.3932-.176,.7709-.4474,1.1818-.5137,6.4426-1.0394,12.8817-2.1047,19.338-3.0521,3.9926-.5858,8.0129-.9829,12.0207-1.4648,.0165,.1602-.0071,.3141-.0712,.4619Z"></path>
    <path class="cls-1" d="M60.5671,206.0323c-1.5235,2.3612-3.047,4.7225-4.8217,7.4732l-1.348-5.1925c1.8649-1.3562,3.8791-1.9602,6.1697-2.2807Z"></path>
    <path class="cls-10" d="M111.1991,301.6193c3.5717,.7753,6.6593,1.4455,9.7469,2.1157-1.7265,.9014-3.356,.1189-4.9424-.1435-1.4913-.2467-3.3653,.0746-4.8045-1.9721Z"></path>
    <path class="cls-10" d="M358.2032,254.9512c3.5052-.4617,7.0104-.9234,10.5155-1.3851l.0671,.4815c-3.5151,.5551-7.0303,1.1102-10.5454,1.6653-.0124-.2539-.0248-.5078-.0372-.7618Z"></path>
    <path class="cls-10" d="M142.4311,281.8697l.5807-.5475c2.9867,.8137,5.9734,1.6274,8.9602,2.4411l-.1204,.4928c-3.1782-.6222-6.3536-1.2567-9.4205-2.3864Z"></path>
    <path class="cls-10" d="M157.087,272.1237l-.0483-.8369c2.6945,.8338,5.389,1.6676,8.0835,2.5014l-.1558,.5463c-2.6788-.5221-5.3012-1.2755-7.8794-2.2109Z"></path>
    <path class="cls-10" d="M174.0791,263.589l-.0554-.7703,7.4651,2.6731-.1917,.5503c-2.4578-.6457-4.8848-1.3936-7.218-2.4531Z"></path>
    <path class="cls-10" d="M346.5977,256.9377c2.4202-.4241,4.8403-.8481,7.4872-1.3119-.6324,.848-1.1914,1.0774-3.6567,1.5317-1.2474,.2299-2.5112,.3708-3.7676,.552-.021-.2573-.042-.5146-.0629-.7718Z"></path>
    <path class="cls-10" d="M127.0721,292.0618c-.0082-.2632-.0164-.5263-.0245-.7895l6.4328,1.4407-.1107,.5692c-2.1556-.0185-4.2105-.7305-6.2976-1.2203Z"></path>
    <path class="cls-22" d="M363.9984,242.1831c.064-.1478,.0877-.3018,.0712-.4619,1.3707-1.2271,2.8973-.0367,4.347-.1938l-4.4182,.6557Z"></path>
    <path class="cls-22" d="M369.3197,240.806h3.5098l.0057,.2584h-3.5305l.0151-.2584Z"></path>
    <path class="cls-10" d="M153.8956,284.5767h-1.2538v-.2129h1.2539l-.0002,.2129Z"></path>
    <path class="cls-10" d="M166.3803,274.7058l-.804-.128-.0025-.2179,.8013-.1298,.0052,.4757Z"></path>
    <path class="cls-19" d="M187.7422,70.827c-3.298,.8478-6.4818,1.6662-9.8285,2.5265,.1409,2.8904,1.315,5.4563,1.866,8.1663,.6226,.3414,1.1826,.6484,1.7953,.9844-.1333,.2096-.2219,.5353-.3876,.581-1.9713,.5437-3.954,1.0458-6.3417,1.6644l1.0622-2.2398c-1.4188-5.3797-2.9166-11.0591-4.4257-16.7812l-2.1129-.9473c2.4139-1.1389,4.6764-1.5271,7.427-2.1126l-1.4248,2.0758c.582,2.218,1.2073,4.601,1.8892,7.1995,3.3676-.8932,6.6027-1.7513,10.0202-2.6578-.6598-2.5485-1.2561-4.8515-1.8699-7.2219-.607-.2473-1.1832-.482-1.7432-.71,.0563-.2496,.0497-.4998,.129-.5309,2.0621-.8083,4.1703-1.4311,6.8278-1.6865l-1.322,1.8505c1.4201,5.4155,2.907,11.0858,4.4162,16.8413l2.2472,1.0816c-2.495,1.0188-4.6194,1.6552-7.2961,1.8701,1.1667-1.4031,1.1181-2.5767,.661-3.9156-.6378-1.8682-1.0208-3.8234-1.5889-6.0379Z"></path>
    <path class="cls-20" d="M239.9125,76.9986l1.1895,1.467-.1825,.4171c-2.1477-.3901-4.2953-.7802-6.9419-1.261,.9274-.6493,1.418-.9928,2.0162-1.4115,1.0192-5.6111,2.055-11.3132,3.1121-17.1329l-1.0884-1.3605c.2631-.8079,3.5817-.3392,6.7978,.8912-.6081,.4125-1.098,.7448-1.7879,1.2129-.3984,2.2607-.8257,4.6848-1.2814,7.2708,3.457,.635,6.7045,1.2315,10.1586,1.8659,.4703-2.5533,.9154-4.9695,1.3386-7.2669l-1.434-1.8688c2.6543-.0618,4.8314,.6799,7.5146,1.1625l-2.1108,1.3586c-1.0217,5.6496-2.0531,11.3534-3.0969,17.1256,.3428,.4691,.7141,.9774,1.1333,1.551-2.2395,.2769-5.1693-.2607-6.8537-1.2921,.5886-.2803,1.062-.5058,1.7164-.8174,.4962-2.7048,1.0136-5.5245,1.5495-8.4455l-10.1938-1.8327c-.535,2.878-1.0436,5.6142-1.5553,8.3667Z"></path>
    <path class="cls-20" d="M324.7505,96.7727l-2.0255-.5162c-1.6688,1.7912-3.4124,3.6628-5.1138,5.489,.8103,.8706,1.4948,1.692,2.268,2.4192,1.6815,1.5813,3.4082,3.1145,5.2526,4.7912,1.7253-1.8617,3.3491-3.6137,4.9716-5.3644v-2.4339c1.9431,1.7613,3.5504,3.2183,5.566,5.0453h-2.5012c-4.057,4.3486-8.0775,8.658-12.0376,12.9027l.3008,1.9253-.3889,.2355c-1.6549-1.5492-3.3098-3.0984-5.3073-4.9683h2.5722c1.8203-1.9859,3.71-4.0475,5.6839-6.2011-2.5685-2.4242-4.9696-4.6904-7.5422-7.1184-2.0075,2.1508-3.9152,4.1948-5.8878,6.3083,.1348,.6147,.2639,1.2036,.5265,2.4009-2.2802-1.681-3.8971-3.2286-5.7473-5.1594l2.5385-.214c3.7973-4.0559,7.7133-8.2385,11.6924-12.4886v-2.1409c1.9164,1.0778,4.0359,3.1107,5.1789,5.0879Z"></path>
    <path class="cls-20" d="M150.8347,95.944c-1.9237,1.5465-3.7286,2.9472-6.3016,3.821,.3495-.9255,.5601-1.4832,.8407-2.2262-2.8312-4.9606-5.7071-9.9995-8.6246-15.1112-.6708-.1494-1.3344-.2973-1.9979-.4451,3.1261-2.0611,5.9592-4.3931,9.4695-5.4485,3.8295-1.1514,7.1464,.8817,7.4315,4.6715,.1045,1.3888-.5388,2.8338-.8471,4.2821,1.9843,1.2488,4.1631,2.7222,6.4471,4.0086,.9539,.5373,2.1317,.6772,3.1762,.9884-1.9735,2.5903-3.9516,2.9536-6.6219,1.1337-1.3742-.9365-2.7211-1.9145-4.1159-2.8187-.4051-.2626-.9335-.335-1.6302-.5706-.727,.334-1.6147,.7419-2.6596,1.222,1.1687,2.0719,2.263,4.0118,3.409,6.0435l2.0248,.4496Zm-6.1851-7.7408c2.0654-1.2754,4.0345-2.1665,4.013-4.693-.0178-2.0972-1.0769-3.7512-2.9211-4.5614-1.9887-.8738-3.8011-.0199-5.5853,1.3828,1.4841,2.5999,2.9035,5.0865,4.4934,7.8717Z"></path>
    <path class="cls-19" d="M363.6324,151.6272c.3305,6.0103-5.8694,10.2255-10.9662,10.2464-5.2733,.0216-10.7935-4.9776-10.8208-12.0998-.0256-6.6742,5.4826-10.3221,11.1525-10.3561,5.8799-.0353,10.6965,5.6867,10.6345,12.2096Zm-12.704,6.683c3.1935-.017,6.8936-1.7209,8.9991-4.1443,1.8551-2.1351,2.2944-5.3214,1.0561-7.6581-1.3134-2.4784-4.2048-3.8472-7.1019-3.5334-2.8274,.3063-5.2328,1.4667-7.3741,3.2597-2.3405,1.9597-3.2452,5.1678-2.2437,7.8587,.996,2.6763,3.4583,4.2345,6.6645,4.2174Z"></path>
    <path class="cls-20" d="M338.2523,137.7881c-1.5576,.1405-3.1144-.4051-4.5603-1.2825-3.7228-2.2594-5.9153-5.6015-6.4002-9.8871-.311-2.7491,.7368-5.1936,2.6152-7.282,4.8498-5.3916,12.554-5.2014,16.9277,.8475,1.4337,1.9829,2.4089,4.139,2.681,6.6081,.5945,5.396-5.1567,11.3429-11.2634,10.996Zm8.8494-12.1032c-.0552-4.0107-2.6796-6.803-6.0497-7.0491-4.3138-.315-9.4111,3.0222-10.97,7.1822-1.7072,4.5558,1.9547,9.3741,6.8562,8.884,4.4066-.4406,7.4451-3.0027,9.5208-6.7614,.4616-.8359,.5422-1.8822,.6428-2.2556Z"></path>
    <path class="cls-15" d="M104.343,141.8629c-.835,1.6899-1.5728,2.8922-2.8745,4.1803-.1555-.9048-.256-1.4895-.4028-2.3434-4.6784-3.1019-9.5132-6.3075-14.4264-9.565l-1.8627,.569c-.0569-.2805-.2126-.5666-.1277-.7038,.7839-1.2666,1.6093-2.5074,2.4477-3.7942,5.4392-.5878,10.8478-.3487,16.244-.582-.8599-1.3079-5.5638-4.6241-9.409-6.6183-.4928,.154-1.0753,.3359-1.9333,.6039,.3822-1.846,1.3371-2.9421,2.6353-4.297,.1612,.9396,.2625,1.5297,.3969,2.3128,5.1797,3.4599,10.4649,6.9903,15.6447,10.4502-.1986,1.4247-1.0793,1.1773-1.7739,1.1971-5.5694,.1589-11.1391,.303-16.709,.4441-.8296,.021-1.6602,.0029-2.9654,.0029,.7684,.6619,1.186,1.1045,1.6796,1.4333,3.1093,2.0711,6.2344,4.1184,9.3564,6.1704q1.7095,1.1236,4.0802,.5396Z"></path>
    <path class="cls-20" d="M120.894,108.1717l-.2303,1.693-.3908,.3699c.7881,.6072,1.5994,1.1871,2.3577,1.8296,.695,.5889,1.3327,1.2455,2.0364,1.9109-.0273,2.7495-1.7508,4.6226-3.3751,6.4568-1.6217,1.8312-3.7433,3.046-6.1245,3.6479-5.8063,1.4676-12.7936-3.7801-12.8436-9.7409-.0307-3.6642,1.6125-6.7199,4.197-9.2691,.8201-.8089,1.6882-1.5693,2.6645-2.4722l3.7842,1.4455c-.8043,.3492-1.1288,.5762-1.4798,.6295-5.0137,.7615-7.4761,4.5881-5.9008,9.365,1.2678,3.8444,5.706,7.7653,10.5171,7.221,2.7014-.3056,4.5377-1.7384,5.837-4.3955-1.3915-1.2829-2.7119-2.5001-4.0251-3.7108l-1.6344,.427c-.469-.7984,2.0023-3.6476,4.6105-5.4076Z"></path>
    <path class="cls-20" d="M225.0883,75.51v-5.1877l-1.7769-1.4539c2.7361-.2753,4.9794-.1885,7.6278,.0044-.7281,.7583-1.1996,1.2495-1.7746,1.8484v5.1718c-1.4699,1.2142-3.2246,1.4602-4.9131,1.6271-3.8604,.3815-7.4817-.3522-10.3325-3.2078-3.077-3.0821-3.5531-6.8611-2.3294-10.8502,1.2141-3.9579,4.1438-6.1771,8.1417-6.74,2.4229-.3412,4.9194-.1603,7.4586-.2155,.511,1.2981,.9425,2.3943,1.3741,3.4906l-.4133,.2765c-.4302-.3025-.8803-.5804-1.2874-.9114-3.7181-3.0227-8.5765-1.155-10.3008,1.9617-2.1728,3.9274-2.1322,7.78,.1172,11.5779,1.6667,2.8142,5.2048,3.8894,8.4087,2.6083Z"></path>
    <path class="cls-19" d="M131.4652,98.8897l-1.9708-.6072-1.837,1.3931c1.634,2.6166,3.6331,4.8033,5.584,7.2551,2.5142-2.1285,5.7936-3.3691,5.8615-7.496,1.5194,1.0258,.6563,2.5197,1.3987,3.3919-2.0469,2.2502-9.1761,7.7335-11.0332,8.4204l.5689-1.8321c-3.5446-4.4928-7.1465-9.0582-10.8035-13.6935l-2.5786-.2323c3.3424-3.077,6.6932-5.4323,9.8924-8.0525,1.2279,.4859,2.3637,.8455,3.2274,1.9574-1.5202,.2831-2.9422,.295-4.1205,.8367-1.2371,.5687-2.2408,1.6451-3.5208,2.6343,1.4769,1.9105,2.8328,3.6644,4.169,5.3929,1.9818-.1761,2.0167-1.6397,2.034-3.3932,1.4789,1.1128,2.3782,2.1734,3.1286,4.025Z"></path>
    <path class="cls-15" d="M76.5424,149.9855c.301-.5267,.5006-.8762,.7678-1.3438,2.9966,.2768,5.9638,.5438,8.9294,.8268,3.3049,.3154,6.6114,.6178,9.9109,.9832,1.2507,.1385,2.2337-.2702,3.1336-1.437,.6086,1.6544-.5339,2.5695-.8609,3.6554-.3246,1.0781-.9716,2.0591-1.6613,3.4552-.3534-.8627-.5475-1.3366-.809-1.9748-1.6171-.1738-3.3214-.3569-5.0309-.5406-.8366,1.8338-1.5877,3.4804-2.429,5.3245,1.2663,1.1417,2.5437,2.2934,3.849,3.4702,.5392-.2849,1.005-.531,1.4408-.7613,.5384,.5941-.0259,1.9837-1.8553,4.7093-.1764-.9783-.3091-1.7145-.4679-2.595-4.8614-4.4882-9.8071-9.0543-14.9174-13.7722Zm12.7779,3.4267c-2.5777-.2607-4.8403-.4896-7.6723-.776,1.2496,1.1736,2.0754,1.9702,2.9247,2.741,.8868,.8049,1.7962,1.5849,2.8002,2.4676,.7027-1.5993,1.2875-2.9305,1.9475-4.4325Z"></path>
    <path class="cls-15" d="M289.9829,73.1016c-.0481,1.1666,.1472,2.3715-.6906,3.625-.2629-.5348-.4933-1.0887-.7945-1.6011-1.1482-1.9532-2.6483-3.4061-5.0888-3.4903-1.1941-.0412-2.1213,.4204-2.674,1.4776-.5088,.9733-.3762,1.9385,.2968,2.803,.7142,.9174,1.497,1.7838,2.1754,2.726,1.0151,1.4097,2.0424,2.8204,2.9268,4.3123,1.8258,3.0799-.3849,7.7455-4.6361,7.836-2.9298,.0624-5.356-.8883-7.4888-2.7871-.6127-.5455-1.1981-1.1215-1.904-1.7849-.1961-1.0285-.636-2.1949-.1641-3.8565,.5049,.6652,.93,1.0187,1.0856,1.4659,.6975,2.0049,2.1377,3.3415,3.8669,4.4032,1.7916,1.1001,4.0885,.9268,5.2978-.3128,1.0601-1.0867,1.348-2.3145,.5964-3.6235-.7409-1.2902-1.7005-2.4532-2.5311-3.6942-.782-1.1684-1.6161-2.3168-2.2559-3.5621-.9053-1.7623-.754-3.5907,.3906-5.1851,1.1713-1.6315,2.9936-2.1705,4.8594-1.8243,1.5063,.2795,2.9395,1.015,4.366,1.6381,.748,.3267,1.4116,.8463,2.3663,1.4347Z"></path>
    <path class="cls-19" d="M82.8303,181.9193c1.0254-.8034,1.8182-1.4756,2.6626-2.0753,1.6595-1.1788,2.4958-2.8525,2.9122-4.7676,.3594-1.653-.3561-3.2169-1.7766-4.047-1.4096-.8237-2.7541-.5929-3.9003,.4498-1.6595,1.5097-3.2228,3.1245-4.845,4.6759-1.1175,1.0688-2.4028,1.7159-4.0167,1.6783-2.6101-.0607-4.41-1.5517-4.7733-4.1443-.246-1.7551-.0732-3.4786,.6801-5.1145,.409-.8883,.8049-1.7827,1.2623-2.7977l3.4353-.48,.222,.4961c-.4641,.3608-.9131,.7434-1.3952,1.0783-1.589,1.1037-2.5632,2.5892-2.7499,4.5232-.1636,1.6944,.4149,2.8426,1.6045,3.3242,1.3369,.5413,2.4463,.0742,3.3886-.8779,.5833-.5894,1.065-1.279,1.6464-1.8705,1.1638-1.184,2.3235-2.3777,3.5601-3.4832,1.7897-1.6001,3.8628-1.7627,6.0394-.919,2.2352,.8664,2.9583,2.7937,3.2162,4.9286,.3013,2.4946-.4493,4.7538-1.8531,6.8101-.4606,.6747-.9228,1.3483-1.5369,2.2453-.9842-.0318-2.0908,1.0069-3.7828,.3674Z"></path>
    <path class="cls-15" d="M304.0669,101.7582c-.9155,.7769-2.0099,1.2508-3.065,1.6224-.951-.5084-1.8855-.8861-2.6801-1.458-1.678-1.2078-3.4804-2.3323-4.8765-3.8236-2.8747-3.0709-3.6652-7.4776-1.1033-11.9672,2.1072-3.6929,6.7224-6.022,10.7347-5.1351,2.4265,.5363,4.5482,1.4853,6.4478,3.0287,.6368,.5174,1.2815,1.025,2.0741,1.658-.0677,1.109,.164,2.421-.9341,3.7749-.2495-.5537-.4467-.875-.5437-1.2241-1.109-3.9894-5.1536-6.0669-8.9962-4.608-4.7398,1.7994-7.8189,7.215-6.6818,11.752,.7824,3.1219,3.7589,5.6232,6.9808,5.8301,.8159,.0524,1.638,.0079,2.4572,.0079l.186,.542Z"></path>
    <path class="cls-15" d="M352.2681,173.4215c.8329,3.3314,1.037,6.6616,4.7688,8.447-1.7341,.6844-2.8072-.0781-4.1073-.3335-1.2344-4.1932-2.6202-8.3815-3.681-13.3409,1.7001,1.4573,2.9694,1.0718,4.3396,.66,4.278-1.2858,8.5935-2.4463,12.8907-3.6689,.554-.1576,1.0854-.3945,1.6562-.6054,.2493-.5794,.4908-1.1409,.9183-2.1348,1.0213,2.5857,1.7554,4.756,2.0428,7.4832l-1.9854-1.3461c-5.4955,1.579-11.0524,3.1757-16.8428,4.8395Z"></path>
    <path class="cls-19" d="M199.3977,59.6523l-1.464-1.0175c.228-.8736,3.3548-1.3942,6.8276-1.202l-1.3467,1.7721c.6779,5.5924,1.3835,11.4128,2.0887,17.2298,.5809,.3851,1.0927,.7243,1.5468,1.0254-.2236,.8936-4.6601,1.4074-6.9652,.9144l1.4394-1.3548c-.708-5.7822-1.4109-11.5228-2.1265-17.3672Z"></path>
    <path class="cls-9" d="M46.7621,314.0638c3.8806-6.7271,7.6329-13.2316,11.4972-19.9305,3.8756,6.7142,7.6274,13.2138,11.5044,19.9305h-23.0017Z"></path>
    <path class="cls-9" d="M382.47,294.1466c3.9213,6.7885,7.6141,13.1815,11.3419,19.6349-2.1445,.527-15.8132,.6778-22.8026,.2866,3.7869-6.5825,7.5024-13.0409,11.4608-19.9214Z"></path>
    <path class="cls-7" d="M340.1361,349.7604c5.4435-5.4404,10.6704-10.6644,16.0857-16.0767,2.0891,7.2154,3.8704,14.4914,5.9959,21.9964-7.5645-2.0279-14.7715-3.96-22.0816-5.9197Z"></path>
    <path class="cls-7" d="M372.31,344.8278c-2.8994-6.9895-5.7574-13.8791-8.7402-21.0696,7.5953,1.0012,14.9749,1.974,22.3829,2.9505-.6203,1.7519-10.4177,14.7537-13.6427,18.1191Z"></path>
    <path class="cls-7" d="M68.3342,345.0778c-4.7946-6.2445-9.273-12.0773-13.9744-18.2005,7.6462-1.2798,15.1071-2.0336,22.8333-3.1348-2.9831,7.1844-5.8482,14.0846-8.8589,21.3354Z"></path>
    <path class="cls-7" d="M387.2648,282.9169c7.5798-.9942,14.8216-1.9441,22.3651-2.9335-.4265,2.7726-1.7567,4.8581-2.5953,7.1038-.8643,2.3141-1.8984,4.5644-2.8461,6.8476-.9434,2.2725-1.8719,4.5512-2.9374,7.1444-2.741-2.9773-4.8641-6.0995-7.1484-9.0822-2.2435-2.9293-4.6757-5.7281-6.8378-9.08Z"></path>
    <path class="cls-7" d="M30.7687,279.9465c7.8261,1.0219,15.0742,1.9682,22.7648,2.9724-4.5974,6.2425-9.1675,12.0571-13.9439,18.2775-3.0383-7.1049-5.8351-13.909-8.8209-21.2498Z"></path>
    <path class="cls-6" d="M100.2181,349.8761c-6.9801,1.8665-14.1769,3.791-21.6365,5.7858,1.9998-7.44,3.9334-14.6336,5.8086-21.6098,5.2745,5.2732,10.518,10.5153,15.8279,15.8239Z"></path>
    <path class="cls-6" d="M27.082,265.8245c5.3796-5.3867,10.6012-10.6153,15.9625-15.9837,2.0631,6.9768,3.7868,14.1135,5.8564,21.5685-4.1468-.4771-7.5992-1.8411-11.1589-2.7081-3.583-.8726-7.1245-1.9151-10.6601-2.8767Z"></path>
    <path class="cls-6" d="M391.8213,271.5664c2.0203-7.5823,3.9152-14.6938,5.7631-21.6285,5.2869,5.2824,10.5439,10.535,15.9434,15.9299-7.0267,1.8596-14.0611,3.9563-21.7064,5.6986Z"></path>
    <path class="cls-16" d="M254.7761,395.9515c1.0931-.1813,2.2856-.3791,3.5433-.5877-.6457,2.3855,.7989,10.8281,2.2069,12.5647-1.3421,.251-2.567,.48-3.9083,.7309,.7457-2.1655-.0942-3.9888-.4254-6.1464-2.0453,.3047-3.9709,.5916-6.1373,.9143,.6588,2.0315-.0427,4.2282,1.9551,5.9792-1.3813,.2581-2.6101,.4877-3.9056,.7297,.5238-2.4236-1.1284-10.969-2.5181-12.5637,1.3718-.242,2.5963-.458,3.9718-.7007-.7572,1.9599-.0189,3.6049,.4145,5.529,2.0251-.3083,3.9555-.6022,6.2096-.9453-.4934-1.9308-.94-3.6785-1.4065-5.5038Z"></path>
    <path class="cls-17" d="M296.5567,390.363c1.7918,1.2962,3.5539,2.5709,5.3973,3.9044-.6042,.5806-1.5015,.8594-2.7169,1.0073-.9038-.78-1.9087-1.6306-2.8945-2.5028-.8953-.7921-1.8235-1.0847-3.1341-.1757,.6901,1.4467,1.3763,2.885,2.1818,4.5736-.7891,.3365-1.8568,.7917-2.825,1.2047-.766-3.6734-2.5565-6.7986-3.9191-10.0794-.2263-.5448-.8326-.9318-1.3243-1.457,1.7923-.8957,3.6856-1.8209,5.7845-2.3309,1.5712-.3819,2.7893,.0313,3.7461,1.2469,.9982,1.2682,.968,2.593,.035,3.909-.1377,.1942-.2085,.4359-.3307,.6999Zm-5.9858-3.8783c.7536,1.716,1.4391,3.2767,2.118,4.8227,2.5855-.8475,3.3151-1.8839,2.6541-3.6125-.7571-1.9803-1.9779-2.3197-4.7722-1.2101Z"></path>
    <path class="cls-17" d="M310.4877,375.6652c2.1085-1.1086,3.931-2.2735,5.9047-3.0582,3.3264-1.3225,6.1184-.19,7.7804,2.8825,1.6036,2.9646,1.0366,5.7391-1.7978,7.9058-1.574,1.2032-3.3213,2.1798-4.88,3.1872-1.0237-3.7535-3.5237-6.5749-5.3248-9.7601-.2375-.42-.8707-.6161-1.6826-1.1571Zm9.0117,8.4022c2.0225-.9846,3.6971-1.9766,3.5489-4.2668-.1708-2.638-1.4615-4.761-3.7601-6.0635-1.9705-1.1166-3.6092,.0522-5.325,1.1741,1.838,3.0398,3.6237,5.9932,5.5362,9.1562Z"></path>
    <path class="cls-14" d="M210.0946,412.0388c-1.6117-1.6284-1.0904-3.7289-2.2565-5.2799-.6858,1.5656-1.3452,3.071-2.1233,4.8474-.4941-.4947-.9663-.7469-1.0684-1.1046-.8166-2.8618-1.5219-5.7556-2.3507-8.6137-.3479-1.1996-.9115-2.3367-1.4273-3.6278l3.5269,.1591c-.3493,3.3113,1.2209,6.078,1.8093,9.4401,.8625-2.0051,1.5765-3.6649,2.4009-5.5811,1.6301,1.7208,1.2334,3.8338,2.2749,5.5443,1.0768-2.6039,2.1148-5.1142,3.2435-7.8435l-1.0776-.6562h2.8767c-2.6342,3.7943-3.5107,8.3703-5.8284,12.7161Z"></path>
    <path class="cls-16" d="M136.4098,388.5597c-1.0767,1.0156-2.1533,2.0313-3.2238,3.0411-.7512-.1725-.9378-.5405-.8245-1.2693,.4185-2.6933,.8163-5.3923,1.1096-8.1014,.1411-1.3023,.0316-2.6317,.0357-3.9489,.0957-.091,.1874-.1859,.2749-.2849,1.0019,.3718,2.0038,.7436,3.0378,1.1273-1.8286,2.8578-1.1597,5.9808-1.9313,9.11,1.9042-1.0543,2.6063-2.9855,4.782-3.9527-.2267,2.2163-.4075,3.9848-.5993,5.8597,3.5186-2.7945,5.4233-5.0779,5.6543-6.906,.8168,.3387,1.5825,.6562,2.2993,.9534-.9545,.7892-1.8229,1.4395-2.6135,2.1735-2.4949,2.3167-4.9607,4.6648-7.5257,7.0837-.9283-1.3489,.0721-2.9847-.1041-4.5236l.1226-.6079-.4941,.2459Z"></path>
    <path class="cls-16" d="M278.4518,398.526c.5007,2.7847,.5155,2.816,1.985,4.0775-1.2219,.4135-2.3842,.807-3.7962,1.2849,.4149-2.3727-.5921-4.2884-1.3079-6.2259-.7136-1.9315-.7325-4.2377-2.6925-5.869,2.3899-.9424,4.8076-1.9011,7.4456-2.0371,1.8463-.0952,3.1483,.9217,3.7388,2.6657,.5252,1.5509,.0857,3.1354-1.4288,4.1273-1.2238,.8015-2.6265,1.3299-3.944,1.9767Zm-.6222-1.2474c2.5115-.5659,3.5214-1.2763,3.7369-2.6212,.1963-1.2251-.122-2.3069-1.1689-3.0668-1.0661-.774-2.8555-.5907-4.2971,.4165,.5597,1.7065,1.1215,3.4193,1.7291,5.2715Z"></path>
    <path class="cls-14" d="M338.5087,370.4174c.0554,.6527,.1109,1.3055,.1834,2.1592-2.0774,1.5235-4.2027,3.0821-6.3761,4.6761-.4778-2.0877-5.4385-9.1428-7.3783-10.4741,1.911-1.3917,3.7714-2.7464,5.7612-4.1956,.6061,.3313,1.2147,.664,1.8187,.9942-.1331,.2681-.2103,.5011-.2513,.4949-1.7429-.2635-3.0222,.5291-4.2275,1.8163,.7657,1.0894,1.5149,2.1552,2.2448,3.1937,1.2863,.0835,1.2119-.9132,1.4913-1.8691,.5298,.6223,.9752,1.1456,1.5375,1.806l-1.9627,.8978c.4402,1.914,1.916,3.0429,2.8997,4.5592,1.8245-1.0145,3.4499-1.969,4.2593-4.0587Z"></path>
    <path class="cls-14" d="M110.248,378.4425c-.9175-.6303-1.7895-1.2293-2.5486-1.7508,.5728-1.2225,1.0956-2.3384,1.69-3.6071l-3.1543-2.2521c-.9214,.9518-1.7722,1.8307-2.724,2.814-.4388-.3-1.1098-.759-1.9601-1.3405,3.5139-.9317,5.7484-3.5456,8.5376-5.2952,1.0374-.6507,1.983-1.4478,2.9464-2.1604,1.034,.6251,.5783,1.4069,.3949,2.0491-.7948,2.7834-1.6724,5.543-2.479,8.3232-.2702,.9312-.4189,1.8976-.703,3.22Zm-3.1458-8.1291c.996,.6543,1.6346,1.0739,2.4879,1.6345l1.0767-3.6171-.3938-.2912c-.9417,.6752-1.8833,1.3505-3.1708,2.2737Z"></path>
    <path class="cls-14" d="M175.0743,404.1434c1.247,.8915,2.1784,1.6974,3.2385,2.2613,.6078,.3232,1.4447,.4148,2.1431,.3275,1.4933-.1866,2.2114-1.7686,1.333-2.9957-.5664-.7913-1.4531-1.3455-2.1351-2.064-.7323-.7714-1.5629-1.521-2.0484-2.4398-.9138-1.7296,.0028-3.592,1.9385-3.9877,.9289-.1899,1.9447-.0774,2.903,.0428,.6347,.0797,1.2373,.416,1.9703,.679,.1371,.3658,.3329,.8146,.4679,1.281,.0637,.2202,.0109,.4742,.0109,.822-.2574-.0693-.5605-.0581-.6431-.1876-.7789-1.2214-1.8626-1.8699-3.3172-1.8156-.7735,.0289-1.6292,.2165-1.7552,1.0717-.0829,.5626,.179,1.3282,.5577,1.7711,.5817,.6802,1.4328,1.1216,2.1028,1.7371,.7265,.6674,1.516,1.3307,2.0304,2.1511,1.0374,1.6542,.5083,3.565-1.1823,4.4613-2.3668,1.2547-5.3955,.2988-7.1312-1.3108-.1686-.1564-.2507-.4337-.3127-.6707-.0797-.3046-.0983-.6252-.1711-1.134Z"></path>
    <path class="cls-16" d="M162.5015,403.3921c3.2754-3.4486,3.1166-8.4612,.1023-13.2844,1.4961,.3942,2.7025,.712,3.6281,.9559,.3608,1.9384,.667,3.5834,.9816,5.2737,2.0113-1.022,3.1119-2.1233,3.7862-3.7839,.6718,.1898,1.3559,.3831,2.395,.6767-4.6703,2.4561-7.1517,5.9231-7.0578,11.1505-1.2134-.3127-2.3852-.6148-3.8353-.9886Z"></path>
    <path class="cls-16" d="M239.6084,398.1731l1.0462,1.9304c-.3739,0-.6329,.0815-.7694-.0134-.8288-.5759-1.6597-1.0617-2.9407-.6099,.0717,1.4687,.1178,2.9381,.2224,4.4034,.1,1.4008,.2154,2.8035,.4103,4.1933,.1394,.9936,.4214,1.9671,.6671,3.0724h-3.4113c.8401-3.8083-.543-7.5388-.3062-11.2696-1.5649-.4852-2.4603,.1681-3.2851,1.3824-.4012-1.0775-.1605-1.7496,.4855-2.415,2.588-.2213,5.2136-.4457,7.8811-.6738Z"></path>
    <path class="cls-16" d="M122.682,371.6142c1.0915,.5054,2.183,1.0107,3.2726,1.5152-.7241,.614-1.3795,.9518-1.7131,1.4893-1.6561,2.6687-3.2274,5.3901-4.9072,8.2258,1.5355,1.3086,3.0226,2.38,5.3031,2.2461-.5146,.3917-1.0291,.7835-1.6398,1.2484-2.3165-1.376-4.5743-2.717-6.924-4.1127,.5889-.5278,1.1992-.875,1.5235-1.3992,1.6114-2.6047,3.1597-5.2489,4.6945-7.8998,.191-.3299,.17-.7826,.2472-1.1784l.1432-.1346Z"></path>
    <path class="cls-17" d="M311.3632,389.7321c-.9655,.5066-2.0219,1.0609-3.0732,1.6126-1.188-3.7554-3.2688-6.8423-4.8729-10.1547-.1759-.3631-.785-.5163-1.3061-.8361,1.0049-.9915,2.3302-1.3848,3.5888-2.0379-.1193,1.7641,1.1757,4.9023,4.1069,9.8945,.3271,.5572,.9495,.9411,1.5564,1.5216Z"></path>
    <path class="cls-15" d="M225.4847,411.7473c-1.3043,.0952-2.5133,.1835-3.5869,.262,.2773-4.3455,.6174-8.5243-.3477-12.7425h3.6508c-1.2152,1.9857-.5938,4.1377-.5659,6.1832,.0281,2.0626-.6541,4.2664,.8499,6.2974Z"></path>
    <path class="cls-15" d="M152.0621,389.6997c.8227-.9126,1.1404-2.3883,2.8055-2.5611,.7023,4.5641-.9049,9.0419,.1338,13.7401-1.178-.4175-2.2333-.7914-3.5714-1.2657,1.5651-.9703,.8967-2.3446,1.1996-3.6545-.5517-.296-1.0457-.5611-1.5396-.8261l.6262-.4872,.9413-.0627c0-1.0749,.0304-2.1473-.026-3.2151-.0111-.21-.3575-.4022-.5492-.6026l-.02-1.065Z"></path>
    <path class="cls-22" d="M152.0621,389.6997c.0067,.355,.0133,.71,.02,1.065-.6559,.9251-1.3119,1.8503-2.0431,2.8816,.5881,.3503,1.1326,.6745,1.677,.9988l-.6262,.4872-1.7631-.4655c-.9079,.7956-1.9223,1.5721-1.9552,3.2437-.7912-.2496-1.5269-.4818-2.6489-.8358,2.8575-1.2356,3.9014-3.7656,5.7058-5.5722,.5724-.5731,1.0907-1.2003,1.6337-1.8029Z"></path>
    <path class="cls-16" d="M122.5388,371.7488l-.358-.2755,.5013,.1409-.1432,.1346Z"></path>
    <path class="cls-16" d="M133.5068,378.2812l-.2986-.4432,.5735,.1583c-.0875,.099-.1792,.1939-.2749,.2849Z"></path>
    <path class="cls-8" d="M162.4769,42.412l5.877-21.9188c.4897,.2355,.9053,.3224,1.1578,.5734,4.8979,4.8702,9.7784,9.758,14.6531,14.6515,.1576,.1582,.218,.4134,.4012,.7774-7.2934,1.9535-14.4933,3.882-22.089,5.9166Z"></path>
    <path class="cls-8" d="M100.899,78.0354c-5.4459,5.4468-10.7038,10.7057-16.3177,16.3206-2.0356-7.5614-3.9528-14.6827-5.9356-22.0481,2.6312-.0071,4.9282,1.1458,7.3422,1.6712,2.4156,.5257,4.8012,1.1958,7.1875,1.848,2.452,.6701,4.889,1.3951,7.7236,2.2083Z"></path>
    <path class="cls-8" d="M27.2003,161.7864c6.9438-1.8643,14.0412-3.7699,21.5156-5.7767-.4913,4.0779-1.8912,7.5912-2.7404,11.2209-.8419,3.5988-1.9345,7.1389-2.8617,10.5038-5.2669-5.2783-10.5414-10.5642-15.9135-15.948Z"></path>
    <path class="cls-9" d="M68.3404,82.5694c2.9846,7.2175,5.8194,14.0727,8.7865,21.2477-7.6658-.7081-15.0165-1.9975-22.8558-2.8574,4.7601-6.2221,9.311-12.1706,14.0693-18.3903Z"></path>
    <path class="cls-9" d="M391.7378,155.9403c7.708,2.0612,14.7892,3.9549,21.9084,5.8587-.9821,1.6756-13.6639,14.4628-15.9915,16.1067-1.9396-7.2007-3.8539-14.307-5.9169-21.9654Z"></path>
    <path class="cls-7" d="M289.4439,47.0214c-1.0204-7.7839-1.9916-15.1919-2.9983-22.871,7.1942,2.9736,14.0569,5.8103,21.2503,8.7836-5.9849,4.8254-11.9812,9.2606-18.252,14.0874Z"></path>
    <path class="cls-9" d="M196.8194,34.8438c-4.701-6.1316-9.2626-12.0814-14.0552-18.3325,7.7735-1.0181,15.1559-1.9849,22.8745-2.9958-3.0117,7.2835-5.8637,14.1807-8.8192,21.3284Z"></path>
    <path class="cls-9" d="M53.5386,144.6598c-7.6701,1.236-15.0033,2.0293-22.7183,3.1082,2.7713-7.2721,5.7903-14.0621,8.7405-21.3488,4.7429,6.1893,9.2301,12.045,13.9778,18.2406Z"></path>
    <path class="cls-9" d="M401.1884,126.4225c2.9754,7.2174,5.8087,14.09,8.8022,21.3513-7.8088-1.0362-15.1387-2.0087-22.865-3.0339,4.7938-6.2442,9.3103-12.127,14.0628-18.3174Z"></path>
    <path class="cls-9" d="M257.8907,16.5732c-4.65,6.194-9.1224,12.0749-13.974,18.1711-2.9691-7.1485-5.7686-13.8885-8.581-20.6598,1.7861-.4179,13.2405,.8678,22.5551,2.4887Z"></path>
    <path class="cls-7" d="M110.5036,70.4952c-7.2572-2.7435-14.0524-5.7579-21.3148-8.7401,6.1696-4.7386,12.0417-9.2486,18.263-14.0269,1.0378,7.7428,2.0173,15.0501,3.0517,22.767Z"></path>
    <path class="cls-7" d="M140.0933,51.6631c-6.7833,3.9159-13.1784,7.6078-19.8523,11.4606v-22.9077c6.534,3.7676,12.9891,7.4897,19.8523,11.4471Z"></path>
    <path class="cls-9" d="M363.5809,103.9277c3.0432-7.3439,5.838-14.0885,8.8001-21.2367,4.8972,6.0641,9.2856,12.0119,14.0499,18.2227-7.6716,1.0119-14.9562,1.9728-22.85,3.0141Z"></path>
    <path class="cls-7" d="M330.407,70.5485c.6676-7.7389,1.9238-14.9488,2.8035-22.4374,2.4526,.9222,4.0939,2.8137,6.0651,4.1832,2.1045,1.4621,4.0949,3.0897,6.1196,4.6648,1.9399,1.5093,3.86,3.044,6.1176,4.8271-7.1309,2.9604-13.9098,5.7747-21.1058,8.7622Z"></path>
    <path class="cls-7" d="M151.3282,47.0462c-6.241-4.7858-12.1436-9.3121-18.329-14.0553,7.0792-2.9485,13.8845-5.8591,21.2644-8.7363-.9988,7.755-1.9352,15.0249-2.9355,22.7915Z"></path>
    <path class="cls-6" d="M220.3744,13.3103c3.8655,6.6772,7.5778,13.0896,11.3134,19.5426-2.0374,.4954-16.3882,.6415-22.7043,.2443,3.7102-6.6111,7.4587-13.0357,11.3909-19.7869Z"></path>
    <path class="cls-6" d="M320.4456,63.1026c-6.6934-3.8617-13.0472-7.5275-19.782-11.4131,6.7544-3.9095,13.1686-7.622,19.782-11.4499v22.8629Z"></path>
    <path class="cls-6" d="M278.2625,42.4082c-7.5719-2.0405-14.6453-3.9466-21.7332-5.8567,.7914-1.5987,13.3295-14.3058,15.8567-16.0301,1.9318,7.195,3.8406,14.3042,5.8765,21.8868Z"></path>
    <path class="cls-6" d="M356.3087,93.8343c-5.3724-5.3617-10.5318-10.5109-15.8215-15.7901,2.0778-1.1194,4.5236-1.3434,6.8246-2.0023,2.4562-.7033,4.9137-1.404,7.3807-2.0684,2.3605-.6357,4.7339-1.2233,7.4564-1.9233-1.9976,7.4509-3.903,14.5582-5.8401,21.784Z"></path>
    <path class="cls-6" d="M382.465,133.5231c-3.8908-6.7614-7.517-13.0628-11.382-19.7795,7.7476-.2067,15.0688-.0555,22.8752-.1145-3.9131,6.7734-7.6111,13.1743-11.4932,19.8941Z"></path>
    <path class="cls-6" d="M46.8512,113.7614h22.7194c-3.6344,6.6448-7.4503,13.0257-11.3084,19.7483l-11.4109-19.7483Z"></path>
    <path class="cls-12" d="M243.6135,237.4942c1.6678,2.1729,2.5549,4.3645,2.6963,7.2622,.2401,.4784,.666,1.3269,1.2538,2.4979,4.2721-.9822,8.762-2.043,13.2674-3.0328,1.3226-.2906,2.2013-1.0943,3.0982-2.1732-.77-2.0309,1.0611-3.9971,.3062-6.1274,.6891-1.1122,1.3689-2.2094,2.1034-3.395,2.1874,1.4463,2.1034,3.9291,3.2608,5.7501l-.438,1.0143c.3641,.4424,.8875,.8889,1.1505,1.4561,.2225,.4799,.1436,1.0997,.2026,1.704l1.6096,.4988c-.6237,.2643-1.1156,.5169-1.6347,.6859-6.7715,2.2045-13.549,4.3906-20.3206,6.5951-4.8799,1.5887-9.7475,3.2154-14.6309,4.7933-5.5147,1.7818-11.173,1.5863-16.7985,.8965-5.1819-.6353-10.3198-1.6252-15.4829-2.4205-1.0628-.1637-2.1813-.3517-3.223-.1931-2.9096,.4432-5.3524-.6467-7.9222-2.107,0-.6462-.1888-1.4357,.0306-2.0878,1.45-4.311,.8899-9.2487,4.0162-13.2122,1.3775,.9348,2.0833,2.202,2.4486,3.5975,.2326,.8885-.1515,1.9695,.1726,2.7946,.3549,.9038,.7349,1.6401,.7318,2.7182-.003,1.0039,.873,2.0104,1.6098,3.5248,1.6604,1.3647,4.1993,.4014,6.5793,.9782,.596-1.5641,2.0505-2.6272,1.326-4.4224l1.619-1.9677v-2.4088c.2974-.398,.6853-.9171,1.0982-1.4698l-.5937-1.3584c.9886-1.5928,1.9626-3.1621,3.1631-5.0963,1.2751,1.7863,2.3031,3.2265,3.3748,4.7278-.2201,.5234-.4358,1.0364-.6894,1.6396,.5839,.4913,1.1393,.9586,1.7286,1.4546l-.1996,2.0872,1.4119,1.7746c-.1894,.4953-.3843,1.0048-.6176,1.6146,.3892,.5632,.8052,1.1653,1.2554,1.8168-.2236,.585-.4522,1.1831-.6554,1.7147,1.6781,2.2003,2.2495,2.2289,4.1508,.2024l-.5745-1.6711,.8419-1.1993v-4.0699c.8143-1.3088,1.5762-2.5333,2.4384-3.9191,2.0077,2.0175,2.6697,4.357,3.4542,6.7471l-.2131,.9025c.5315,1.0472,.9976,1.9657,1.5043,2.9641,2.428,.3494,7.0662-.8459,8.8594-2.3066,.7599-3.2932,.2505-6.9091,3.2305-9.7754Z"></path>
    <path class="cls-12" d="M310.1113,186.2352c.6699,0,1.0865-.0846,1.4495,.0188,.6324,.1802,1.279,.3984,1.8375,.7364,3.6213,2.1915,7.3932,4.0634,11.304,5.6894,1.0951,.4553,1.9779,1.4211,3.0414,2.2149-.2588,.9731-.4655,1.7499-.6994,2.6294,.5329,1.725,1.9751,2.7474,3.4721,3.6222,1.424,.8322,2.9484,1.5119,4.4767,2.1423,4.2627,1.758,8.2025,4.0558,11.5505,7.2231,4.4062,4.1683,8.7813,8.3606,14.0374,11.9886-1.6958,.3008-3.1006,.5499-4.6022,.8163-3.4527-2.637-7.0105-5.11-10.2864-7.9125-5.092-4.3562-10.7477-7.7436-16.6819-10.7886-3.7527-1.9256-7.3823-4.1312-10.9008-6.4622-3.844-2.5466-6.5786-6.0586-7.8319-10.5899-.0858-.31-.084-.6442-.1665-1.3281Z"></path>
    <path class="cls-12" d="M224.3873,216.1929c-1.4261,2.3614-3.0553,3.8793-4.9851,5.0293-2.0632,1.2295-4.2021,2.3416-6.3565,3.4068-5.6479,2.7925-11.297,5.5852-16.996,8.2708-3.1431,1.4812-6.3596,2.8186-9.5966,4.0836-1.9786,.7732-4.0998,.995-6.5428,1.2216,.7216-1.7574,1.8277-2.6465,2.9897-3.3806,7.1614-4.5244,14.2561-9.1678,21.5728-13.4285,5.5695-3.2433,11.649-5.2334,18.216-5.2847,.4014-.0031,.8031,.0371,1.6985,.0818Z"></path>
    <path class="cls-13" d="M316.9973,234.2644c-3.6068,.2017-6.1584-1.5875-8.4748-3.7707-2.118-1.9963-4.1057-4.1308-6.1571-6.1981-.3513-.3541-.7386-.6722-1.1019-1.0148-1.4948-1.4097-3.0684-2.3835-4.9492-.8849-2.8086-1.1929-6.1038-5.375-6.2543-8.0281-.0544-.9596,.1044-2.0195,.4813-2.8985,1.0201-2.3789,1.2307-4.7299,.7065-7.2851-.3452-1.6827-.216-3.4782-.166-5.2194,.0222-.7732,.3731-1.537,.7357-2.9176,.6811,.9909,1.1383,1.4367,1.3357,1.9773,1.8449,5.0526,4.5046,9.7484,6.1659,14.9044,1.8728,5.8126,5.993,10.0387,10.999,13.4503,1.9091,1.3011,3.7361,2.75,5.4515,4.2968,.8904,.8028,1.6426,1.8971,1.2278,3.5883Z"></path>
    <path class="cls-12" d="M244.2732,218.8812c-1.3358-.3244-2.4418-.5931-3.7909-.9208,.2964-.637,.4108-1.2303,.7659-1.5771,.8867-.8662,1.8508-1.6629,2.8412-2.4115,2.7129-2.0506,5.4231-4.1078,8.2014-6.0674,1.1825-.834,2.2926-1.9816,4.1509-1.7599-.0297,.4654,.0988,1.0125-.1104,1.3506-4.3179,6.9757-6.4233,15.1105-11.3624,21.7491-1.5313,2.0583-3.2127,4.0102-4.9092,5.9369-.4994,.5671-1.2867,.8806-2.3714,1.5917,.0591-1.0741-.0136-1.6258,.1324-2.1118,1.2731-4.2355,3.5281-8.0141,5.5876-11.8836,.3103-.583,.6959-1.1632,.8325-1.7913,.1443-.6635,.0324-1.3828,.0324-2.1048Z"></path>
    <path class="cls-20" d="M173.3713,242.0374c-.6244,1.4193-1.4659,1.3616-2.2808,1.0915-4.1581-1.3781-8.3036-2.7941-12.6645-4.2682,.3906-.7719,.7465-1.4753,1.1365-2.246l-.5822-1.4305c.3029-.4161,.6351-.8727,.8711-1.197v-4.0938c.8249-1.3232,1.587-2.5458,2.5959-4.1641,.5891,1.0283,.9102,1.6605,1.2994,2.2474,.3661,.5521,.8042,1.0564,.9844,1.6724,.3369,.9673,.6739,1.9346,1.1083,3.1819l-.3844,1.0385,.8544,1.001c.5003,1.8653,.8939,3.333,1.3793,5.1427,1.7294,.616,3.6227,1.2904,5.6827,2.0242Z"></path>
    <path class="cls-12" d="M277.5445,238.2173l1.1645-1.6299c-.0611-.6491-.1222-1.299-.2104-2.2375,.4836-.3333,1.0946-.7544,1.6834-1.1602-.2941-.744-.4964-1.256-.7009-1.7734,.9463-1.4811,1.8526-2.8997,2.8021-4.386,1.997,1.0345,1.3277,3.4236,2.9921,4.2135-.1449,.7762-.2475,1.3256-.3616,1.9365l.999,1.7439-.3597,1.6941c.3843,.5759,.7904,1.1845,1.1779,1.7652-.2953,.6993-6.3847,2.5366-8.9208,2.7591v-2.6339l-.2656-.2914Z"></path>
    <path class="cls-11" d="M212.0098,155.7538c.6781,.9224,1.6727,.5301,2.5207,.5338,7.8729,.0338,15.746,.0327,23.619,.0079,1.3449-.0042,2.5567,.2288,3.7869,.8499,2.9999,1.5146,6.0767,2.877,9.2159,4.3444v19.4364c-2.7635,1.3804-5.3643,2.6183-7.9017,3.9748-1.1362,.6074-2.2601,.8741-3.543,.8683-7.9986-.0361-15.9981-.0706-23.996,.0176-2.0857,.023-3.9005-.3791-5.5468-1.657-.3399-.2639-.8553-.3017-1.3725-.4708l-.417,2.1356h-18.6834v-14.0498h19.2128c.046,.8356,.0854,1.552,.1298,2.3578,1.0371,.5672,2.0264,1.1082,2.7938,1.5279h14.6536v-6.2585c.9789-.6981,.3882-1.6135,.5502-2.6773h-2.6387c-7.8179,0-15.6363-.0462-23.4534,.036-1.724,.0181-3.2298-.3642-4.7213-1.1369-1.0094-.5229-2.0871-.914-3.1342-1.3641-.9347-.5023-1.8694-1.0046-2.9949-1.6094,.1432-7.2065,.2863-14.4073,.4342-21.8488,2.2857-.9691,4.615-1.9502,6.9389-2.944,1.9212-.8216,3.8896-1.1574,6.0079-1.119,5.7345,.1041,11.4727,.0848,17.208,.0075,1.8655-.0251,3.588,.2233,5.2509,1.0889,1.0843,.5644,2.2508,.9708,3.5119,1.5035l.3622-1.9163h21.3268v2.6357c-.0383,3.8783-.0766,7.7567-.1157,11.715h-2.7484c-4.6634,0-9.3268-.0126-13.99,.0156-.6039,.0036-1.3657-.3516-1.7693,.479-.5523-.0411-1.1041-.1064-1.657-.1178-.9114-.0188-1.2418-.5522-1.2873-1.3689l.5986-1.274c-1.6996-.6279-2.9424-1.7848-4.7262-1.7664-4.816,.0496-9.6328,.017-14.3956,.017l-1.8294,1.2658v5.9597l2.7996,.8012Z"></path>
    <path class="cls-21" d="M192.0244,185.7946h16.3511l.417-2.1356c.5172,.1691,1.0326,.2069,1.3725,.4708,1.6463,1.278,3.4611,1.68,5.5468,1.657,7.9978-.0882,15.9973-.0536,23.996-.0176,1.2829,.0058,2.4068-.2609,3.543-.8683,2.5374-1.3565,5.1382-2.5944,7.9017-3.9748v-17.9303l2.7978,1.3164v19.4276c-3.0843,1.5775-6.2959,3.2432-9.5372,4.8493-.412,.2041-.9784,.1286-1.4733,.129-9.0773,.0065-18.1546,.0047-27.2874,.0047-1.2396-.7664-2.5046-1.5487-3.9445-2.4389-.0879,.8074-.1618,1.4859-.2497,2.2925h-19.1927c-.0859-.9909-.1635-1.8864-.241-2.782Z"></path>
    <path class="cls-21" d="M232.5071,152.2373c.4037-.8306,1.1655-.4754,1.7693-.479,4.6632-.0281,9.3266-.0155,13.99-.0156h2.7484c.0391-3.9583,.0774-7.8367,.1157-11.715l2.7896,.1875v14.3524h-21.2347c-.0563-.7356-.1173-1.533-.1783-2.3303Z"></path>
    <path class="cls-18" d="M193.0846,164.2296c1.0471,.4501,2.1248,.8412,3.1342,1.3641,1.4915,.7727,2.9973,1.155,4.7213,1.1369,7.8171-.0822,15.6355-.0359,23.4534-.0359h2.6387c-.162,1.0638,.4287,1.9793-.5502,2.6773-7.873-.0048-15.746-.0258-23.6189,.001-1.3553,.0046-2.5883-.2151-3.7976-.8648-1.9494-1.0471-3.9595-1.9812-5.981-2.9814v-1.2972Z"></path>
    <path class="cls-21" d="M212.0098,155.7538l-2.7996-.8012v-5.9597l1.8294-1.2658c4.7627,0,9.5796,.0326,14.3956-.017,1.7839-.0184,3.0267,1.1385,4.7262,1.7664l-.5986,1.274c-4.8217-.0189-9.6436-.0143-14.4648-.0736-1.1545-.0142-2.0786,.3654-3.0882,1.1829v3.894Z"></path>
    <path class="cls-20" d="M174.9004,354.969c.7763-2.8193,1.5279-5.549,2.3306-8.4642,1.2099,.4887,2.2273,.821,3.1718,1.2976,1.9617,.9899,2.7176,2.9067,2.062,5.0069-.6284,2.013-2.4645,3.1192-4.6592,2.7668-.8839-.1419-1.755-.3638-2.9052-.6071Z"></path>
    <path class="cls-17" d="M156.6898,343.4792c-.1981,1.8745-.3961,3.749-.6212,5.8798-1.3128-.5916-2.4027-1.0828-3.7124-1.673l3.8564-4.3833,.4772,.1765Z"></path>
    <path class="cls-17" d="M199.1533,361.2784c-1.4766-.2333-2.6645-.421-4.0587-.6413,.883-1.8455,1.7117-3.5777,2.784-5.819,.305,1.4559,.5151,2.4147,.7048,3.3777,.1843,.9357,.3477,1.8755,.5698,3.0826Z"></path>
    <path class="cls-5" d="M89.3203,153.4122c-.6599,1.502-1.2448,2.8332-1.9475,4.4325-1.0039-.8827-1.9133-1.6627-2.8002-2.4676-.8492-.7708-1.675-1.5674-2.9247-2.741,2.832,.2864,5.0946,.5153,7.6723,.776Z"></path>
    <path class="cls-3" d="M107.1023,370.3135c1.2876-.9233,2.2292-1.5985,3.1708-2.2737l.3938,.2912-1.0767,3.6171c-.8533-.5606-1.4919-.9802-2.4879-1.6345Z"></path>
  </g>
</svg>
